M48
INCH,TZ
T1C0.016
T2C0.030
T3C0.033
T4C0.040
%
G90
G05
T1
X34709Y-29854
X34948Y-45164
X35326Y-43802
X35347Y-44699
X35350Y-31091
X35677Y-48232
X35826Y-43790
X35834Y-44751
X35884Y-32966
X36000Y-42646
X36070Y-47743
X36177Y-30035
X36239Y-43731
X36254Y-41213
X36326Y-47747
X36354Y-33705
X36368Y-43463
X36582Y-40887
X36657Y-33783
X36702Y-41192
X36709Y-30673
X36754Y-44217
X36801Y-44533
X36931Y-32095
X36964Y-41408
X36969Y-31650
X37054Y-44697
X37148Y-32312
X37326Y-47751
X37396Y-44756
X37476Y-33705
X37575Y-35398
X37575Y-36354
X37605Y-45034
X37675Y-45468
X37730Y-46110
X37795Y-45737
X37903Y-42272
X37925Y-45137
X37969Y-40134
X38059Y-33539
X38071Y-34067
X38102Y-32252
X38161Y-42644
X38226Y-47299
X38248Y-43555
X38250Y-46891
X38315Y-40303
X38330Y-49854
X38333Y-49529
X38335Y-34492
X38336Y-49225
X38376Y-42236
X38531Y-33185
X38639Y-50365
X38645Y-41943
X38730Y-43229
X38761Y-42843
X39003Y-48606
X39087Y-47594
X39091Y-31091
X39106Y-34461
X39121Y-48083
X39146Y-32776
X39150Y-33161
X39154Y-33535
X39157Y-37622
X39197Y-36453
X39201Y-35374
X39262Y-49449
X39268Y-41815
X39268Y-47827
X39335Y-48610
X39359Y-49170
X39360Y-37871
X39409Y-46559
X39421Y-29996
X39473Y-49712
X39535Y-45898
X39555Y-39807
X39562Y-47653
X39591Y-34055
X39706Y-50365
X39708Y-48614
X39757Y-41174
X39796Y-45017
X39829Y-44619
X39878Y-30839
X39945Y-40615
X39962Y-50365
X40041Y-48830
X40067Y-35378
X40169Y-40807
X40247Y-42362
X40268Y-33165
X40336Y-48838
X40339Y-36350
X40343Y-46457
X40352Y-50413
X40500Y-35362
X40504Y-34504
X40508Y-42760
X40553Y-47826
X40556Y-47413
X40579Y-30508
X40667Y-48610
X40677Y-41134
X40689Y-45839
X40822Y-41747
X40823Y-36016
X40835Y-33980
X40882Y-43909
X41004Y-42020
X41102Y-39067
X41110Y-46846
X41228Y-37953
X41303Y-34972
X41312Y-39358
X41354Y-45813
X41354Y-45467
X41531Y-43291
X41551Y-45122
X41614Y-32315
X41634Y-33161
X41680Y-39464
X41728Y-34972
X41728Y-43063
X41874Y-33197
X41988Y-39224
X42008Y-45307
X42015Y-39719
X42071Y-33193
X42197Y-36456
X42205Y-35531
X42374Y-41114
X42591Y-37783
X42600Y-41332
X42665Y-44930
X42913Y-40780
X42925Y-44534
X42984Y-36965
X43114Y-40582
X43119Y-39361
X43425Y-35524
X43429Y-36453
X43638Y-32043
X43764Y-37424
X43776Y-37853
X43835Y-38767
T2
X43252Y-33075
X43252Y-34059
T3
X42008Y-29882
X44488Y-29882
T4
X34370Y-35020
X34370Y-36020
X34370Y-37020
X34370Y-38020
X34370Y-39020
X34370Y-40020
X34370Y-41020
X34370Y-42020
X34370Y-43020
X34370Y-44020
X34370Y-45020
X34370Y-46020
X34370Y-47020
X34370Y-48020
X34370Y-49020
X34370Y-50020
X44370Y-35020
X44370Y-36020
X44370Y-37020
X44370Y-38020
X44370Y-39020
X44370Y-40020
X44370Y-41020
X44370Y-42020
X44370Y-43020
X44370Y-44020
X44370Y-45020
X44370Y-46020
X44370Y-47020
X44370Y-48020
X44370Y-49020
X44370Y-50020
T0
M30
