G04 #@! TF.FileFunction,Copper,L1,Top,Signal*
%FSLAX46Y46*%
G04 Gerber Fmt 4.6, Leading zero omitted, Abs format (unit mm)*
G04 Created by KiCad (PCBNEW 4.0.7) date 07/17/18 10:36:10*
%MOMM*%
%LPD*%
G01*
G04 APERTURE LIST*
%ADD10C,0.100000*%
%ADD11R,0.750000X0.800000*%
%ADD12R,0.500000X0.600000*%
%ADD13R,0.800000X0.750000*%
%ADD14R,0.600000X0.500000*%
%ADD15R,0.900000X0.500000*%
%ADD16R,2.500000X1.700000*%
%ADD17R,0.457200X2.997200*%
%ADD18C,1.524000*%
%ADD19R,0.400000X0.600000*%
%ADD20R,0.600000X0.400000*%
%ADD21R,0.254000X0.355600*%
%ADD22R,0.355600X0.254000*%
%ADD23R,0.310000X0.410000*%
%ADD24R,0.410000X0.310000*%
%ADD25R,0.838200X0.558800*%
%ADD26R,1.320800X0.558800*%
%ADD27R,1.020000X0.680000*%
%ADD28R,0.400000X1.350000*%
%ADD29R,2.100000X1.600000*%
%ADD30R,1.900000X1.900000*%
%ADD31R,0.700000X0.500000*%
%ADD32R,0.300000X0.200000*%
%ADD33R,0.500000X0.700000*%
%ADD34R,0.200000X0.300000*%
%ADD35R,1.000000X1.600000*%
%ADD36C,1.720000*%
%ADD37R,1.000000X2.500000*%
%ADD38C,1.000000*%
%ADD39R,0.299720X0.551180*%
%ADD40C,0.600000*%
%ADD41C,0.250000*%
%ADD42C,0.200000*%
%ADD43C,0.400000*%
%ADD44C,0.150000*%
%ADD45C,0.254000*%
%ADD46C,0.208000*%
G04 APERTURE END LIST*
D10*
G36*
X107832997Y-113816281D02*
X107479443Y-113462727D01*
X107903707Y-113038463D01*
X108257261Y-113392017D01*
X107832997Y-113816281D01*
X107832997Y-113816281D01*
G37*
G36*
X108575459Y-113073819D02*
X108221905Y-112720265D01*
X108646169Y-112296001D01*
X108999723Y-112649555D01*
X108575459Y-113073819D01*
X108575459Y-113073819D01*
G37*
G36*
X95395355Y-103521091D02*
X95748909Y-103874645D01*
X95324645Y-104298909D01*
X94971091Y-103945355D01*
X95395355Y-103521091D01*
X95395355Y-103521091D01*
G37*
G36*
X94652893Y-104263553D02*
X95006447Y-104617107D01*
X94582183Y-105041371D01*
X94228629Y-104687817D01*
X94652893Y-104263553D01*
X94652893Y-104263553D01*
G37*
G36*
X103880535Y-116238743D02*
X103526981Y-115885189D01*
X103951245Y-115460925D01*
X104304799Y-115814479D01*
X103880535Y-116238743D01*
X103880535Y-116238743D01*
G37*
G36*
X104622997Y-115496281D02*
X104269443Y-115142727D01*
X104693707Y-114718463D01*
X105047261Y-115072017D01*
X104622997Y-115496281D01*
X104622997Y-115496281D01*
G37*
G36*
X107072997Y-113056281D02*
X106719443Y-112702727D01*
X107143707Y-112278463D01*
X107497261Y-112632017D01*
X107072997Y-113056281D01*
X107072997Y-113056281D01*
G37*
G36*
X107815459Y-112313819D02*
X107461905Y-111960265D01*
X107886169Y-111536001D01*
X108239723Y-111889555D01*
X107815459Y-112313819D01*
X107815459Y-112313819D01*
G37*
G36*
X106597261Y-101422727D02*
X106243707Y-101776281D01*
X105819443Y-101352017D01*
X106172997Y-100998463D01*
X106597261Y-101422727D01*
X106597261Y-101422727D01*
G37*
G36*
X105854799Y-100680265D02*
X105501245Y-101033819D01*
X105076981Y-100609555D01*
X105430535Y-100256001D01*
X105854799Y-100680265D01*
X105854799Y-100680265D01*
G37*
G36*
X105787020Y-102165710D02*
X105256690Y-102696040D01*
X104691004Y-102130354D01*
X105221334Y-101600024D01*
X105787020Y-102165710D01*
X105787020Y-102165710D01*
G37*
G36*
X104726360Y-101105050D02*
X104196030Y-101635380D01*
X103630344Y-101069694D01*
X104160674Y-100539364D01*
X104726360Y-101105050D01*
X104726360Y-101105050D01*
G37*
G36*
X96311371Y-113497817D02*
X95957817Y-113851371D01*
X95533553Y-113427107D01*
X95887107Y-113073553D01*
X96311371Y-113497817D01*
X96311371Y-113497817D01*
G37*
G36*
X95568909Y-112755355D02*
X95215355Y-113108909D01*
X94791091Y-112684645D01*
X95144645Y-112331091D01*
X95568909Y-112755355D01*
X95568909Y-112755355D01*
G37*
G36*
X105639443Y-103142017D02*
X105992997Y-102788463D01*
X106417261Y-103212727D01*
X106063707Y-103566281D01*
X105639443Y-103142017D01*
X105639443Y-103142017D01*
G37*
G36*
X106381905Y-103884479D02*
X106735459Y-103530925D01*
X107159723Y-103955189D01*
X106806169Y-104308743D01*
X106381905Y-103884479D01*
X106381905Y-103884479D01*
G37*
G36*
X106400344Y-102429694D02*
X106930674Y-101899364D01*
X107496360Y-102465050D01*
X106966030Y-102995380D01*
X106400344Y-102429694D01*
X106400344Y-102429694D01*
G37*
G36*
X107461004Y-103490354D02*
X107991334Y-102960024D01*
X108557020Y-103525710D01*
X108026690Y-104056040D01*
X107461004Y-103490354D01*
X107461004Y-103490354D01*
G37*
G36*
X107380344Y-101459694D02*
X107910674Y-100929364D01*
X108476360Y-101495050D01*
X107946030Y-102025380D01*
X107380344Y-101459694D01*
X107380344Y-101459694D01*
G37*
G36*
X108441004Y-102520354D02*
X108971334Y-101990024D01*
X109537020Y-102555710D01*
X109006690Y-103086040D01*
X108441004Y-102520354D01*
X108441004Y-102520354D01*
G37*
D11*
X92340000Y-83160000D03*
X92340000Y-84660000D03*
X93780000Y-83140000D03*
X93780000Y-84640000D03*
X95180000Y-83120000D03*
X95180000Y-84620000D03*
D12*
X99560000Y-90710000D03*
X99560000Y-91760000D03*
D10*
G36*
X94505355Y-102381091D02*
X94858909Y-102734645D01*
X94434645Y-103158909D01*
X94081091Y-102805355D01*
X94505355Y-102381091D01*
X94505355Y-102381091D01*
G37*
G36*
X93762893Y-103123553D02*
X94116447Y-103477107D01*
X93692183Y-103901371D01*
X93338629Y-103547817D01*
X93762893Y-103123553D01*
X93762893Y-103123553D01*
G37*
G36*
X95214645Y-102398909D02*
X94861091Y-102045355D01*
X95285355Y-101621091D01*
X95638909Y-101974645D01*
X95214645Y-102398909D01*
X95214645Y-102398909D01*
G37*
G36*
X95957107Y-101656447D02*
X95603553Y-101302893D01*
X96027817Y-100878629D01*
X96381371Y-101232183D01*
X95957107Y-101656447D01*
X95957107Y-101656447D01*
G37*
G36*
X99493707Y-98918463D02*
X99847261Y-99272017D01*
X99422997Y-99696281D01*
X99069443Y-99342727D01*
X99493707Y-98918463D01*
X99493707Y-98918463D01*
G37*
G36*
X98751245Y-99660925D02*
X99104799Y-100014479D01*
X98680535Y-100438743D01*
X98326981Y-100085189D01*
X98751245Y-99660925D01*
X98751245Y-99660925D01*
G37*
G36*
X97993707Y-100398463D02*
X98347261Y-100752017D01*
X97922997Y-101176281D01*
X97569443Y-100822727D01*
X97993707Y-100398463D01*
X97993707Y-100398463D01*
G37*
G36*
X97251245Y-101140925D02*
X97604799Y-101494479D01*
X97180535Y-101918743D01*
X96826981Y-101565189D01*
X97251245Y-101140925D01*
X97251245Y-101140925D01*
G37*
D13*
X101840000Y-119030000D03*
X103340000Y-119030000D03*
D12*
X110451380Y-93997684D03*
X110451380Y-95047684D03*
X102213422Y-121478298D03*
X102213422Y-120428298D03*
D14*
X98983422Y-127928298D03*
X100033422Y-127928298D03*
D11*
X110451380Y-98457684D03*
X110451380Y-99957684D03*
D12*
X97990000Y-120150000D03*
X97990000Y-119100000D03*
X110441380Y-97207684D03*
X110441380Y-96157684D03*
D14*
X102263422Y-122638298D03*
X103313422Y-122638298D03*
D13*
X104490000Y-87940000D03*
X105990000Y-87940000D03*
X102800000Y-79260000D03*
X101300000Y-79260000D03*
X97830000Y-86550000D03*
X99330000Y-86550000D03*
D12*
X96440000Y-83280000D03*
X96440000Y-84330000D03*
D15*
X106570000Y-85200000D03*
X106570000Y-86700000D03*
D16*
X98800000Y-81250000D03*
X102800000Y-81250000D03*
D17*
X89728352Y-115691372D03*
X89728352Y-119247372D03*
X90998352Y-115691372D03*
X90998352Y-119247372D03*
X92268352Y-115691372D03*
X92268352Y-119247372D03*
X93538352Y-115691372D03*
X93538352Y-119247372D03*
X94808352Y-115691372D03*
X94808352Y-119247372D03*
D18*
X109860000Y-84010000D03*
X109860000Y-86510000D03*
D19*
X90628352Y-121717372D03*
X89728352Y-121717372D03*
D20*
X89718352Y-111977372D03*
X89718352Y-112877372D03*
D10*
G36*
X93547641Y-108833819D02*
X93971905Y-109258083D01*
X93689063Y-109540925D01*
X93264799Y-109116661D01*
X93547641Y-108833819D01*
X93547641Y-108833819D01*
G37*
G36*
X92911245Y-109470215D02*
X93335509Y-109894479D01*
X93052667Y-110177321D01*
X92628403Y-109753057D01*
X92911245Y-109470215D01*
X92911245Y-109470215D01*
G37*
D20*
X90998352Y-111977372D03*
X90998352Y-112877372D03*
X105871380Y-96297684D03*
X105871380Y-97197684D03*
X105811380Y-99357684D03*
X105811380Y-98457684D03*
X101780000Y-91480000D03*
X101780000Y-90580000D03*
X102870000Y-91490000D03*
X102870000Y-90590000D03*
X95460000Y-90700000D03*
X95460000Y-91600000D03*
D19*
X105380000Y-86700000D03*
X104480000Y-86700000D03*
X101410000Y-86510000D03*
X102310000Y-86510000D03*
D10*
G36*
X101951041Y-114375796D02*
X103127455Y-115552210D01*
X102929889Y-115749776D01*
X101753475Y-114573362D01*
X101951041Y-114375796D01*
X101951041Y-114375796D01*
G37*
G36*
X102304594Y-114022243D02*
X103481008Y-115198657D01*
X103283442Y-115396223D01*
X102107028Y-114219809D01*
X102304594Y-114022243D01*
X102304594Y-114022243D01*
G37*
G36*
X102658148Y-113668689D02*
X103834562Y-114845103D01*
X103636996Y-115042669D01*
X102460582Y-113866255D01*
X102658148Y-113668689D01*
X102658148Y-113668689D01*
G37*
G36*
X103011700Y-113315136D02*
X104188114Y-114491550D01*
X103990548Y-114689116D01*
X102814134Y-113512702D01*
X103011700Y-113315136D01*
X103011700Y-113315136D01*
G37*
G36*
X103365255Y-112961581D02*
X104541669Y-114137995D01*
X104344103Y-114335561D01*
X103167689Y-113159147D01*
X103365255Y-112961581D01*
X103365255Y-112961581D01*
G37*
G36*
X103718808Y-112608029D02*
X104895222Y-113784443D01*
X104697656Y-113982009D01*
X103521242Y-112805595D01*
X103718808Y-112608029D01*
X103718808Y-112608029D01*
G37*
G36*
X104072361Y-112254476D02*
X105248775Y-113430890D01*
X105051209Y-113628456D01*
X103874795Y-112452042D01*
X104072361Y-112254476D01*
X104072361Y-112254476D01*
G37*
G36*
X104425915Y-111900922D02*
X105602329Y-113077336D01*
X105404763Y-113274902D01*
X104228349Y-112098488D01*
X104425915Y-111900922D01*
X104425915Y-111900922D01*
G37*
G36*
X104779468Y-111547369D02*
X105955882Y-112723783D01*
X105758316Y-112921349D01*
X104581902Y-111744935D01*
X104779468Y-111547369D01*
X104779468Y-111547369D01*
G37*
G36*
X105133022Y-111193815D02*
X106309436Y-112370229D01*
X106111870Y-112567795D01*
X104935456Y-111391381D01*
X105133022Y-111193815D01*
X105133022Y-111193815D01*
G37*
G36*
X105486575Y-110840262D02*
X106662989Y-112016676D01*
X106465423Y-112214242D01*
X105289009Y-111037828D01*
X105486575Y-110840262D01*
X105486575Y-110840262D01*
G37*
G36*
X105840127Y-110486709D02*
X107016541Y-111663123D01*
X106818975Y-111860689D01*
X105642561Y-110684275D01*
X105840127Y-110486709D01*
X105840127Y-110486709D01*
G37*
G36*
X106193682Y-110133154D02*
X107370096Y-111309568D01*
X107172530Y-111507134D01*
X105996116Y-110330720D01*
X106193682Y-110133154D01*
X106193682Y-110133154D01*
G37*
G36*
X106547235Y-109779602D02*
X107723649Y-110956016D01*
X107526083Y-111153582D01*
X106349669Y-109977168D01*
X106547235Y-109779602D01*
X106547235Y-109779602D01*
G37*
G36*
X106900789Y-109426048D02*
X108077203Y-110602462D01*
X107879637Y-110800028D01*
X106703223Y-109623614D01*
X106900789Y-109426048D01*
X106900789Y-109426048D01*
G37*
G36*
X107254342Y-109072495D02*
X108430756Y-110248909D01*
X108233190Y-110446475D01*
X107056776Y-109270061D01*
X107254342Y-109072495D01*
X107254342Y-109072495D01*
G37*
G36*
X108430756Y-106625835D02*
X107254342Y-107802249D01*
X107056776Y-107604683D01*
X108233190Y-106428269D01*
X108430756Y-106625835D01*
X108430756Y-106625835D01*
G37*
G36*
X108077203Y-106272282D02*
X106900789Y-107448696D01*
X106703223Y-107251130D01*
X107879637Y-106074716D01*
X108077203Y-106272282D01*
X108077203Y-106272282D01*
G37*
G36*
X107723649Y-105918728D02*
X106547235Y-107095142D01*
X106349669Y-106897576D01*
X107526083Y-105721162D01*
X107723649Y-105918728D01*
X107723649Y-105918728D01*
G37*
G36*
X107370096Y-105565176D02*
X106193682Y-106741590D01*
X105996116Y-106544024D01*
X107172530Y-105367610D01*
X107370096Y-105565176D01*
X107370096Y-105565176D01*
G37*
G36*
X107016541Y-105211621D02*
X105840127Y-106388035D01*
X105642561Y-106190469D01*
X106818975Y-105014055D01*
X107016541Y-105211621D01*
X107016541Y-105211621D01*
G37*
G36*
X106662989Y-104858068D02*
X105486575Y-106034482D01*
X105289009Y-105836916D01*
X106465423Y-104660502D01*
X106662989Y-104858068D01*
X106662989Y-104858068D01*
G37*
G36*
X106309436Y-104504515D02*
X105133022Y-105680929D01*
X104935456Y-105483363D01*
X106111870Y-104306949D01*
X106309436Y-104504515D01*
X106309436Y-104504515D01*
G37*
G36*
X105955882Y-104150961D02*
X104779468Y-105327375D01*
X104581902Y-105129809D01*
X105758316Y-103953395D01*
X105955882Y-104150961D01*
X105955882Y-104150961D01*
G37*
G36*
X105602329Y-103797408D02*
X104425915Y-104973822D01*
X104228349Y-104776256D01*
X105404763Y-103599842D01*
X105602329Y-103797408D01*
X105602329Y-103797408D01*
G37*
G36*
X105248775Y-103443854D02*
X104072361Y-104620268D01*
X103874795Y-104422702D01*
X105051209Y-103246288D01*
X105248775Y-103443854D01*
X105248775Y-103443854D01*
G37*
G36*
X104895222Y-103090301D02*
X103718808Y-104266715D01*
X103521242Y-104069149D01*
X104697656Y-102892735D01*
X104895222Y-103090301D01*
X104895222Y-103090301D01*
G37*
G36*
X104541669Y-102736749D02*
X103365255Y-103913163D01*
X103167689Y-103715597D01*
X104344103Y-102539183D01*
X104541669Y-102736749D01*
X104541669Y-102736749D01*
G37*
G36*
X104188114Y-102383194D02*
X103011700Y-103559608D01*
X102814134Y-103362042D01*
X103990548Y-102185628D01*
X104188114Y-102383194D01*
X104188114Y-102383194D01*
G37*
G36*
X103834562Y-102029641D02*
X102658148Y-103206055D01*
X102460582Y-103008489D01*
X103636996Y-101832075D01*
X103834562Y-102029641D01*
X103834562Y-102029641D01*
G37*
G36*
X103481008Y-101676087D02*
X102304594Y-102852501D01*
X102107028Y-102654935D01*
X103283442Y-101478521D01*
X103481008Y-101676087D01*
X103481008Y-101676087D01*
G37*
G36*
X103127455Y-101322534D02*
X101951041Y-102498948D01*
X101753475Y-102301382D01*
X102929889Y-101124968D01*
X103127455Y-101322534D01*
X103127455Y-101322534D01*
G37*
G36*
X99306815Y-101124968D02*
X100483229Y-102301382D01*
X100285663Y-102498948D01*
X99109249Y-101322534D01*
X99306815Y-101124968D01*
X99306815Y-101124968D01*
G37*
G36*
X98953262Y-101478521D02*
X100129676Y-102654935D01*
X99932110Y-102852501D01*
X98755696Y-101676087D01*
X98953262Y-101478521D01*
X98953262Y-101478521D01*
G37*
G36*
X98599708Y-101832075D02*
X99776122Y-103008489D01*
X99578556Y-103206055D01*
X98402142Y-102029641D01*
X98599708Y-101832075D01*
X98599708Y-101832075D01*
G37*
G36*
X98246156Y-102185628D02*
X99422570Y-103362042D01*
X99225004Y-103559608D01*
X98048590Y-102383194D01*
X98246156Y-102185628D01*
X98246156Y-102185628D01*
G37*
G36*
X97892601Y-102539183D02*
X99069015Y-103715597D01*
X98871449Y-103913163D01*
X97695035Y-102736749D01*
X97892601Y-102539183D01*
X97892601Y-102539183D01*
G37*
G36*
X97539048Y-102892735D02*
X98715462Y-104069149D01*
X98517896Y-104266715D01*
X97341482Y-103090301D01*
X97539048Y-102892735D01*
X97539048Y-102892735D01*
G37*
G36*
X97185495Y-103246288D02*
X98361909Y-104422702D01*
X98164343Y-104620268D01*
X96987929Y-103443854D01*
X97185495Y-103246288D01*
X97185495Y-103246288D01*
G37*
G36*
X96831941Y-103599842D02*
X98008355Y-104776256D01*
X97810789Y-104973822D01*
X96634375Y-103797408D01*
X96831941Y-103599842D01*
X96831941Y-103599842D01*
G37*
G36*
X96478388Y-103953395D02*
X97654802Y-105129809D01*
X97457236Y-105327375D01*
X96280822Y-104150961D01*
X96478388Y-103953395D01*
X96478388Y-103953395D01*
G37*
G36*
X96124834Y-104306949D02*
X97301248Y-105483363D01*
X97103682Y-105680929D01*
X95927268Y-104504515D01*
X96124834Y-104306949D01*
X96124834Y-104306949D01*
G37*
G36*
X95771281Y-104660502D02*
X96947695Y-105836916D01*
X96750129Y-106034482D01*
X95573715Y-104858068D01*
X95771281Y-104660502D01*
X95771281Y-104660502D01*
G37*
G36*
X95417729Y-105014055D02*
X96594143Y-106190469D01*
X96396577Y-106388035D01*
X95220163Y-105211621D01*
X95417729Y-105014055D01*
X95417729Y-105014055D01*
G37*
G36*
X95064174Y-105367610D02*
X96240588Y-106544024D01*
X96043022Y-106741590D01*
X94866608Y-105565176D01*
X95064174Y-105367610D01*
X95064174Y-105367610D01*
G37*
G36*
X94710621Y-105721162D02*
X95887035Y-106897576D01*
X95689469Y-107095142D01*
X94513055Y-105918728D01*
X94710621Y-105721162D01*
X94710621Y-105721162D01*
G37*
G36*
X94357067Y-106074716D02*
X95533481Y-107251130D01*
X95335915Y-107448696D01*
X94159501Y-106272282D01*
X94357067Y-106074716D01*
X94357067Y-106074716D01*
G37*
G36*
X94003514Y-106428269D02*
X95179928Y-107604683D01*
X94982362Y-107802249D01*
X93805948Y-106625835D01*
X94003514Y-106428269D01*
X94003514Y-106428269D01*
G37*
G36*
X95179928Y-109270061D02*
X94003514Y-110446475D01*
X93805948Y-110248909D01*
X94982362Y-109072495D01*
X95179928Y-109270061D01*
X95179928Y-109270061D01*
G37*
G36*
X95533481Y-109623614D02*
X94357067Y-110800028D01*
X94159501Y-110602462D01*
X95335915Y-109426048D01*
X95533481Y-109623614D01*
X95533481Y-109623614D01*
G37*
G36*
X95887035Y-109977168D02*
X94710621Y-111153582D01*
X94513055Y-110956016D01*
X95689469Y-109779602D01*
X95887035Y-109977168D01*
X95887035Y-109977168D01*
G37*
G36*
X96240588Y-110330720D02*
X95064174Y-111507134D01*
X94866608Y-111309568D01*
X96043022Y-110133154D01*
X96240588Y-110330720D01*
X96240588Y-110330720D01*
G37*
G36*
X96594143Y-110684275D02*
X95417729Y-111860689D01*
X95220163Y-111663123D01*
X96396577Y-110486709D01*
X96594143Y-110684275D01*
X96594143Y-110684275D01*
G37*
G36*
X96947695Y-111037828D02*
X95771281Y-112214242D01*
X95573715Y-112016676D01*
X96750129Y-110840262D01*
X96947695Y-111037828D01*
X96947695Y-111037828D01*
G37*
G36*
X97301248Y-111391381D02*
X96124834Y-112567795D01*
X95927268Y-112370229D01*
X97103682Y-111193815D01*
X97301248Y-111391381D01*
X97301248Y-111391381D01*
G37*
G36*
X97654802Y-111744935D02*
X96478388Y-112921349D01*
X96280822Y-112723783D01*
X97457236Y-111547369D01*
X97654802Y-111744935D01*
X97654802Y-111744935D01*
G37*
G36*
X98008355Y-112098488D02*
X96831941Y-113274902D01*
X96634375Y-113077336D01*
X97810789Y-111900922D01*
X98008355Y-112098488D01*
X98008355Y-112098488D01*
G37*
G36*
X98361909Y-112452042D02*
X97185495Y-113628456D01*
X96987929Y-113430890D01*
X98164343Y-112254476D01*
X98361909Y-112452042D01*
X98361909Y-112452042D01*
G37*
G36*
X98715462Y-112805595D02*
X97539048Y-113982009D01*
X97341482Y-113784443D01*
X98517896Y-112608029D01*
X98715462Y-112805595D01*
X98715462Y-112805595D01*
G37*
G36*
X99069015Y-113159147D02*
X97892601Y-114335561D01*
X97695035Y-114137995D01*
X98871449Y-112961581D01*
X99069015Y-113159147D01*
X99069015Y-113159147D01*
G37*
G36*
X99422570Y-113512702D02*
X98246156Y-114689116D01*
X98048590Y-114491550D01*
X99225004Y-113315136D01*
X99422570Y-113512702D01*
X99422570Y-113512702D01*
G37*
G36*
X99776122Y-113866255D02*
X98599708Y-115042669D01*
X98402142Y-114845103D01*
X99578556Y-113668689D01*
X99776122Y-113866255D01*
X99776122Y-113866255D01*
G37*
G36*
X100129676Y-114219809D02*
X98953262Y-115396223D01*
X98755696Y-115198657D01*
X99932110Y-114022243D01*
X100129676Y-114219809D01*
X100129676Y-114219809D01*
G37*
G36*
X100483229Y-114573362D02*
X99306815Y-115749776D01*
X99109249Y-115552210D01*
X100285663Y-114375796D01*
X100483229Y-114573362D01*
X100483229Y-114573362D01*
G37*
D21*
X98983422Y-126870698D03*
X99483424Y-126870698D03*
X99983423Y-126870698D03*
X100483422Y-126870698D03*
X100983424Y-126870698D03*
D22*
X101329623Y-126024497D03*
X101329623Y-125524498D03*
X101329623Y-125024499D03*
D21*
X100983424Y-124178298D03*
X100483422Y-124178298D03*
X99983423Y-124178298D03*
X99483424Y-124178298D03*
X98983422Y-124178298D03*
D22*
X98637223Y-125024499D03*
X98637223Y-125524498D03*
X98637223Y-126024497D03*
D23*
X100943422Y-120158298D03*
X100443422Y-120158298D03*
X99913422Y-120158298D03*
X99383422Y-120158298D03*
X98883422Y-120158298D03*
D24*
X98593422Y-120948298D03*
X98593422Y-121478298D03*
X98593422Y-122008298D03*
D23*
X98883422Y-122798298D03*
X99383422Y-122798298D03*
X99913422Y-122798298D03*
X100443422Y-122798298D03*
X100943422Y-122798298D03*
D24*
X101233422Y-122008298D03*
X101233422Y-121478298D03*
X101233422Y-120948298D03*
D25*
X109157980Y-98457684D03*
X109157980Y-97207684D03*
X109157980Y-95957684D03*
X109157980Y-94707684D03*
X107151380Y-94707684D03*
X107151380Y-95957684D03*
X107151380Y-97207684D03*
X107151380Y-98457684D03*
D26*
X104900000Y-85190000D03*
X104900000Y-84239999D03*
X104900000Y-83289998D03*
X102309200Y-83289998D03*
X102309200Y-85190000D03*
D27*
X100490000Y-85180000D03*
X100490000Y-84230000D03*
X100490000Y-83280000D03*
X97830000Y-83280000D03*
X97830000Y-85180000D03*
D10*
G36*
X94028579Y-98464365D02*
X95725635Y-100161421D01*
X94311421Y-101575635D01*
X92614365Y-99878579D01*
X94028579Y-98464365D01*
X94028579Y-98464365D01*
G37*
G36*
X91200151Y-101292793D02*
X92897207Y-102989849D01*
X91482993Y-104404063D01*
X89785937Y-102707007D01*
X91200151Y-101292793D01*
X91200151Y-101292793D01*
G37*
D28*
X94540000Y-79105000D03*
X95190000Y-79105000D03*
X95840000Y-79105000D03*
X93890000Y-79105000D03*
X93240000Y-79105000D03*
D29*
X97640000Y-78980000D03*
X91440000Y-78980000D03*
D30*
X95740000Y-76430000D03*
X93340000Y-76430000D03*
X90490000Y-76430000D03*
X98590000Y-76430000D03*
D31*
X102473422Y-125528298D03*
X102473422Y-124728298D03*
X102483422Y-126618298D03*
X102483422Y-127318298D03*
D32*
X102483422Y-126968298D03*
D33*
X99620000Y-117470000D03*
X100420000Y-117470000D03*
X99383422Y-119068298D03*
X100083422Y-119068298D03*
D34*
X99733422Y-119068298D03*
D35*
X109141380Y-92587684D03*
X106141380Y-92587684D03*
X109111380Y-90247684D03*
X106111380Y-90247684D03*
D10*
G36*
X96879191Y-96447601D02*
X99000512Y-98568922D01*
X98293405Y-99276029D01*
X96172084Y-97154708D01*
X96879191Y-96447601D01*
X96879191Y-96447601D01*
G37*
G36*
X95535688Y-97791104D02*
X97657009Y-99912425D01*
X96949902Y-100619532D01*
X94828581Y-98498211D01*
X95535688Y-97791104D01*
X95535688Y-97791104D01*
G37*
G36*
X91080915Y-90932168D02*
X95323556Y-95174809D01*
X93555789Y-96942576D01*
X89313148Y-92699935D01*
X91080915Y-90932168D01*
X91080915Y-90932168D01*
G37*
D15*
X88150000Y-76560000D03*
X88150000Y-78060000D03*
D20*
X88160000Y-78820000D03*
X88160000Y-79720000D03*
D36*
X112700000Y-88950000D03*
X112700000Y-91490000D03*
X112700000Y-94030000D03*
X112700000Y-96570000D03*
X112700000Y-99110000D03*
X112700000Y-101650000D03*
X112700000Y-104190000D03*
X112700000Y-106730000D03*
X112700000Y-109270000D03*
X112700000Y-111810000D03*
X112700000Y-114350000D03*
X112700000Y-116890000D03*
X112700000Y-119430000D03*
X112700000Y-121970000D03*
X112700000Y-124510000D03*
X112700000Y-127050000D03*
X87300000Y-88950000D03*
X87300000Y-91490000D03*
X87300000Y-94030000D03*
X87300000Y-96570000D03*
X87300000Y-99110000D03*
X87300000Y-101650000D03*
X87300000Y-104190000D03*
X87300000Y-106730000D03*
X87300000Y-109270000D03*
X87300000Y-111810000D03*
X87300000Y-114350000D03*
X87300000Y-116890000D03*
X87300000Y-119430000D03*
X87300000Y-121970000D03*
X87300000Y-124510000D03*
X87300000Y-127050000D03*
D37*
X108850000Y-79650000D03*
X110850000Y-79650000D03*
X112850000Y-79650000D03*
D38*
X106700000Y-75900000D03*
X113000000Y-75900000D03*
D39*
X107367840Y-82066900D03*
X106870000Y-82066900D03*
X106372160Y-82066900D03*
X106372160Y-83413100D03*
X106870000Y-83413100D03*
X107367840Y-83413100D03*
D40*
X109180000Y-93890000D03*
X110310000Y-92590000D03*
X110300000Y-90230000D03*
X103350000Y-116430000D03*
X108368402Y-114121598D03*
X97150000Y-110630000D03*
X97365673Y-125803004D03*
X97372508Y-125030623D03*
X102470000Y-118000000D03*
X100420000Y-116580000D03*
X97095141Y-120138763D03*
X102460000Y-92330000D03*
X103690000Y-91480000D03*
X93224053Y-104626465D03*
X103003422Y-121478298D03*
X102453422Y-124048298D03*
X98143422Y-127928298D03*
X96700000Y-86530000D03*
X106650000Y-99630000D03*
X104720000Y-96400000D03*
X97320000Y-102370000D03*
X99570000Y-89850000D03*
X90620000Y-122510000D03*
X111341380Y-98467684D03*
X106718352Y-100887372D03*
X89728352Y-111257372D03*
X90998352Y-111227372D03*
X96670000Y-85190000D03*
X88160000Y-75830000D03*
X110840000Y-81390000D03*
X99290000Y-78970000D03*
X100130000Y-76190000D03*
X100858474Y-123479026D03*
X99067644Y-123458521D03*
X97358838Y-126630066D03*
X99909630Y-123469400D03*
X104420000Y-118990000D03*
X97154345Y-119104345D03*
X100100000Y-118260000D03*
X99560000Y-92590000D03*
X92917470Y-103852525D03*
X93888697Y-105176450D03*
X94985468Y-113681322D03*
X92375308Y-110394905D03*
X93110000Y-85810000D03*
X103013422Y-120428298D03*
X103293422Y-123468298D03*
X102493422Y-128048298D03*
X101503422Y-127928298D03*
X100853422Y-127928298D03*
X97370000Y-87610000D03*
X95440000Y-92340000D03*
X104931587Y-99968413D03*
X103320000Y-104480000D03*
X109000000Y-103580000D03*
X99440000Y-84230000D03*
X96440000Y-101940000D03*
X105038352Y-115487372D03*
X105990000Y-88830000D03*
X111191380Y-96147684D03*
X111161380Y-95057684D03*
X105868352Y-100237372D03*
X109508352Y-103077372D03*
X109028352Y-113117372D03*
X107181380Y-92597684D03*
X107201380Y-90247684D03*
X108181380Y-95967684D03*
X109521380Y-99977684D03*
X94808352Y-121287372D03*
X91618352Y-121267372D03*
X92268352Y-121277372D03*
X104910000Y-88830000D03*
X103070000Y-77490000D03*
X93240000Y-77910000D03*
X89790000Y-78970000D03*
X91890002Y-76290000D03*
X101290000Y-78330000D03*
X92340000Y-85610000D03*
X95190000Y-85610000D03*
X100560000Y-86500000D03*
X99330000Y-87530000D03*
X97870000Y-84290000D03*
X106860000Y-84310000D03*
X106360000Y-84320000D03*
X105750000Y-84230000D03*
X105700000Y-82080000D03*
X92084677Y-104679949D03*
X91146481Y-83734625D03*
X99450000Y-85180000D03*
X96780000Y-81920000D03*
X99430000Y-83250000D03*
X102280000Y-84240000D03*
X102880000Y-87640000D03*
X103720000Y-86310000D03*
X102870000Y-89820000D03*
X108205001Y-104982220D03*
X101770000Y-89860000D03*
X107630000Y-104430000D03*
X102890000Y-108610000D03*
X102226262Y-107599436D03*
X95440000Y-89910000D03*
X89780486Y-113534793D03*
X93354730Y-112311014D03*
X93474953Y-113113018D03*
X91018352Y-113667372D03*
X96928186Y-108316648D03*
X94118241Y-113529557D03*
X92047286Y-111077384D03*
X91440000Y-108320000D03*
X96274593Y-107371250D03*
X93900000Y-80390000D03*
X98375433Y-109801626D03*
X99724742Y-125599478D03*
X99280000Y-120890000D03*
X100981587Y-104581587D03*
X100470000Y-101110000D03*
X98451933Y-108822419D03*
X100260950Y-126268809D03*
X100488422Y-121038298D03*
X104400000Y-99230000D03*
X95834783Y-117118186D03*
X106700000Y-115080000D03*
X103840000Y-111530000D03*
X99975549Y-96193218D03*
X102030000Y-103650000D03*
X99460000Y-95560000D03*
X101460556Y-103161906D03*
X95517472Y-114387593D03*
X96328745Y-114646872D03*
X101082042Y-114344016D03*
X99741942Y-121480857D03*
X105038343Y-116365909D03*
X101703705Y-124027620D03*
X105540000Y-114610000D03*
X99972902Y-124891722D03*
X101166645Y-113331737D03*
X99366338Y-122130030D03*
X105490000Y-109960000D03*
X105990000Y-109380000D03*
X104149024Y-106730557D03*
X103686787Y-106037200D03*
X99740000Y-106210000D03*
X88767407Y-114717408D03*
X95694422Y-115487604D03*
X96000021Y-116172532D03*
X97475647Y-107278405D03*
X93804229Y-81520227D03*
X98158850Y-106535556D03*
X94355771Y-82071769D03*
D41*
X109157980Y-94707684D02*
X109157980Y-93912020D01*
X109157980Y-93912020D02*
X109180000Y-93890000D01*
X109141380Y-92587684D02*
X110307684Y-92587684D01*
X110307684Y-92587684D02*
X110310000Y-92590000D01*
X109111380Y-90247684D02*
X110282316Y-90247684D01*
X110282316Y-90247684D02*
X110300000Y-90230000D01*
X103915890Y-115849834D02*
X103915890Y-115864110D01*
X103915890Y-115864110D02*
X103350000Y-116430000D01*
X107868352Y-113427372D02*
X107868352Y-113621548D01*
X107868352Y-113621548D02*
X108368402Y-114121598D01*
X96260705Y-111527252D02*
X96260705Y-111519295D01*
X96260705Y-111519295D02*
X97150000Y-110630000D01*
X100420000Y-117470000D02*
X100420000Y-116580000D01*
X97644179Y-125524498D02*
X97365673Y-125803004D01*
X98637223Y-125524498D02*
X97644179Y-125524498D01*
X97378632Y-125024499D02*
X97372508Y-125030623D01*
X98637223Y-125024499D02*
X97378632Y-125024499D01*
X101840000Y-119030000D02*
X101840000Y-118320026D01*
X101840000Y-118320026D02*
X102160026Y-118000000D01*
X102160026Y-118000000D02*
X102470000Y-118000000D01*
X100943422Y-120158298D02*
X100943422Y-119926578D01*
X100943422Y-119926578D02*
X101840000Y-119030000D01*
D42*
X97106378Y-120150000D02*
X97095141Y-120138763D01*
X97990000Y-120150000D02*
X97106378Y-120150000D01*
D41*
X98883422Y-120158298D02*
X97998298Y-120158298D01*
X97998298Y-120158298D02*
X97990000Y-120150000D01*
X101780000Y-91480000D02*
X101780000Y-91650000D01*
X101780000Y-91650000D02*
X102460000Y-92330000D01*
X102870000Y-91490000D02*
X103680000Y-91490000D01*
X103680000Y-91490000D02*
X103690000Y-91480000D01*
X94076254Y-103910000D02*
X93659788Y-104326466D01*
X95360000Y-103910000D02*
X94076254Y-103910000D01*
X93659788Y-104326466D02*
X93524052Y-104326466D01*
X93524052Y-104326466D02*
X93224053Y-104626465D01*
D42*
X102213422Y-121478298D02*
X103003422Y-121478298D01*
D41*
X102473422Y-124728298D02*
X102473422Y-124068298D01*
X102473422Y-124068298D02*
X102453422Y-124048298D01*
D42*
X98983422Y-127928298D02*
X98143422Y-127928298D01*
X101233422Y-121478298D02*
X102213422Y-121478298D01*
D41*
X98983422Y-127928298D02*
X98983422Y-126870698D01*
X102473422Y-124728298D02*
X101625824Y-124728298D01*
X101625824Y-124728298D02*
X101329623Y-125024499D01*
X97830000Y-86550000D02*
X96720000Y-86550000D01*
X96720000Y-86550000D02*
X96700000Y-86530000D01*
X105811380Y-99357684D02*
X106377684Y-99357684D01*
X106377684Y-99357684D02*
X106650000Y-99630000D01*
X105871380Y-96297684D02*
X104819999Y-96300001D01*
X104819999Y-96300001D02*
X104720000Y-96400000D01*
X98382025Y-103226173D02*
X97525852Y-102370000D01*
X97525852Y-102370000D02*
X97320000Y-102370000D01*
X95360000Y-103910000D02*
X95530319Y-103910000D01*
X95530319Y-103910000D02*
X96614258Y-104993939D01*
X99570000Y-89850000D02*
X99570000Y-90700000D01*
X99570000Y-90700000D02*
X99560000Y-90710000D01*
X90628352Y-121717372D02*
X90628352Y-122501648D01*
X90628352Y-122501648D02*
X90620000Y-122510000D01*
X110451380Y-98457684D02*
X111331380Y-98457684D01*
X111331380Y-98457684D02*
X111341380Y-98467684D01*
X109157980Y-98457684D02*
X110451380Y-98457684D01*
X105239012Y-102148032D02*
X105239012Y-103256051D01*
X105239012Y-103256051D02*
X104561785Y-103933278D01*
X98853422Y-120128298D02*
X98883422Y-120158298D01*
D43*
X106208352Y-101387372D02*
X106218352Y-101387372D01*
X106218352Y-101387372D02*
X106718352Y-100887372D01*
D42*
X105239012Y-102148032D02*
X105447692Y-102148032D01*
D43*
X105447692Y-102148032D02*
X106208352Y-101387372D01*
D42*
X107108352Y-112667372D02*
X107868352Y-113427372D01*
X105975999Y-111527252D02*
X105975999Y-111535019D01*
X105975999Y-111535019D02*
X107108352Y-112667372D01*
X105975999Y-111527252D02*
X106018232Y-111527252D01*
X103915890Y-115849834D02*
X103920814Y-115849834D01*
X102794018Y-114709233D02*
X102794018Y-114727962D01*
X102794018Y-114727962D02*
X103915890Y-115849834D01*
X101233422Y-120948298D02*
X101233422Y-121478298D01*
D41*
X89718352Y-111977372D02*
X89718352Y-111267372D01*
X89718352Y-111267372D02*
X89728352Y-111257372D01*
X90998352Y-111977372D02*
X90998352Y-111227372D01*
D43*
X97830000Y-85180000D02*
X96680000Y-85180000D01*
X96680000Y-85180000D02*
X96670000Y-85190000D01*
X97830000Y-85180000D02*
X97830000Y-86550000D01*
D41*
X88150000Y-76560000D02*
X88150000Y-75840000D01*
X88150000Y-75840000D02*
X88160000Y-75830000D01*
X110850000Y-79650000D02*
X110850000Y-81380000D01*
X110850000Y-81380000D02*
X110840000Y-81390000D01*
X97674919Y-103933278D02*
X97674919Y-103812662D01*
X97674919Y-103812662D02*
X96440000Y-102577743D01*
X96440000Y-102577743D02*
X96440000Y-101940000D01*
X107850814Y-111924910D02*
X108610814Y-112684910D01*
X97640000Y-78980000D02*
X99280000Y-78980000D01*
X99280000Y-78980000D02*
X99290000Y-78970000D01*
X100558475Y-123779025D02*
X100858474Y-123479026D01*
X100511949Y-123779025D02*
X100558475Y-123779025D01*
X100483422Y-123750498D02*
X100511949Y-123779025D01*
X98983422Y-123542743D02*
X99067644Y-123458521D01*
X98983422Y-124178298D02*
X98983422Y-123542743D01*
X97658837Y-126330067D02*
X97358838Y-126630066D01*
X97964407Y-126024497D02*
X97658837Y-126330067D01*
X98637223Y-126024497D02*
X97964407Y-126024497D01*
X100333894Y-123469400D02*
X99909630Y-123469400D01*
X100483422Y-123618928D02*
X100333894Y-123469400D01*
X100483422Y-123750498D02*
X100483422Y-123618928D01*
X100483422Y-124178298D02*
X100483422Y-123750498D01*
X103340000Y-119030000D02*
X104380000Y-119030000D01*
X104380000Y-119030000D02*
X104420000Y-118990000D01*
X97990000Y-119100000D02*
X97158690Y-119100000D01*
X97158690Y-119100000D02*
X97154345Y-119104345D01*
D42*
X100083422Y-119068298D02*
X100083422Y-118276578D01*
X100083422Y-118276578D02*
X100100000Y-118260000D01*
D41*
X99560000Y-91760000D02*
X99560000Y-92590000D01*
X93727538Y-103512462D02*
X93387475Y-103852525D01*
X93341734Y-103852525D02*
X92917470Y-103852525D01*
X93387475Y-103852525D02*
X93341734Y-103852525D01*
X94093550Y-105176450D02*
X93888697Y-105176450D01*
X94617538Y-104652462D02*
X94093550Y-105176450D01*
X95180000Y-113486790D02*
X94985468Y-113681322D01*
X95180000Y-112720000D02*
X95180000Y-113486790D01*
X87300000Y-88950000D02*
X87300000Y-88900000D01*
X92410819Y-110394905D02*
X92375308Y-110394905D01*
X92981956Y-109823768D02*
X92410819Y-110394905D01*
X93780000Y-84640000D02*
X93780000Y-85099229D01*
X93780000Y-85099229D02*
X93110000Y-85810000D01*
X95180000Y-112720000D02*
X95063174Y-112720000D01*
X96614258Y-111880805D02*
X95775063Y-112720000D01*
X95775063Y-112720000D02*
X95180000Y-112720000D01*
D42*
X102213422Y-120428298D02*
X103013422Y-120428298D01*
X103313422Y-123448298D02*
X103293422Y-123468298D01*
X103313422Y-122638298D02*
X103313422Y-123448298D01*
X102483422Y-127318298D02*
X102483422Y-128038298D01*
X102483422Y-128038298D02*
X102493422Y-128048298D01*
D41*
X100983424Y-127408300D02*
X101503422Y-127928298D01*
X100983424Y-126870698D02*
X100983424Y-127408300D01*
X100033422Y-127928298D02*
X100853422Y-127928298D01*
X95460000Y-91600000D02*
X95460000Y-92320000D01*
X95460000Y-92320000D02*
X95440000Y-92340000D01*
X104178352Y-101087372D02*
X104178352Y-100721648D01*
X104178352Y-100721648D02*
X104931587Y-99968413D01*
X104208232Y-103579725D02*
X104208232Y-103591768D01*
X104208232Y-103591768D02*
X103320000Y-104480000D01*
X108009012Y-103508032D02*
X108928032Y-103508032D01*
X108928032Y-103508032D02*
X109000000Y-103580000D01*
X106770814Y-103919834D02*
X106800166Y-103919834D01*
X106800166Y-103919834D02*
X107180000Y-103540000D01*
X94617538Y-104652462D02*
X94617538Y-104659722D01*
D43*
X100490000Y-84230000D02*
X99440000Y-84230000D01*
D41*
X95992462Y-101267538D02*
X95992462Y-101492462D01*
X95992462Y-101492462D02*
X96440000Y-101940000D01*
X105990000Y-87940000D02*
X105990000Y-88830000D01*
X110441380Y-96157684D02*
X111181380Y-96157684D01*
X111181380Y-96157684D02*
X111191380Y-96147684D01*
X110451380Y-95047684D02*
X111151380Y-95047684D01*
X111151380Y-95047684D02*
X111161380Y-95057684D01*
X104178352Y-101087372D02*
X104178352Y-100967372D01*
X105465890Y-100644910D02*
X105465890Y-100639834D01*
X105465890Y-100639834D02*
X105868352Y-100237372D01*
D42*
X108989012Y-102538032D02*
X108989012Y-102558032D01*
X108989012Y-102558032D02*
X109508352Y-103077372D01*
X108989012Y-102538032D02*
X108999012Y-102538032D01*
X108009012Y-103508032D02*
X108019012Y-103508032D01*
X108019012Y-103508032D02*
X108538352Y-104027372D01*
X108610814Y-112684910D02*
X108610814Y-112699834D01*
X108610814Y-112699834D02*
X109028352Y-113117372D01*
X107850814Y-111924910D02*
X107855890Y-111924910D01*
X107850814Y-111924910D02*
X107080762Y-111924910D01*
X107080762Y-111924910D02*
X106329551Y-111173699D01*
X104658352Y-115107372D02*
X105038352Y-115487372D01*
X104658352Y-115107372D02*
X103899265Y-115107372D01*
X103899265Y-115107372D02*
X103147572Y-114355679D01*
X99483424Y-124178298D02*
X98983422Y-124178298D01*
X106141380Y-92587684D02*
X107171380Y-92587684D01*
X107171380Y-92587684D02*
X107181380Y-92597684D01*
X106111380Y-90247684D02*
X107201380Y-90247684D01*
X109157980Y-95957684D02*
X108191380Y-95957684D01*
X108191380Y-95957684D02*
X108181380Y-95967684D01*
X110451380Y-99957684D02*
X109541380Y-99957684D01*
X109541380Y-99957684D02*
X109521380Y-99977684D01*
D41*
X95285890Y-112824910D02*
X95270814Y-112824910D01*
X94808352Y-119247372D02*
X94808352Y-121287372D01*
X90998352Y-119247372D02*
X90998352Y-120647372D01*
X90998352Y-120647372D02*
X91618352Y-121267372D01*
X92268352Y-119247372D02*
X92268352Y-121277372D01*
X93240000Y-79105000D02*
X93240000Y-77910000D01*
X91440000Y-78980000D02*
X89800000Y-78980000D01*
X89800000Y-78980000D02*
X89790000Y-78970000D01*
X101300000Y-79260000D02*
X101300000Y-78340000D01*
X101300000Y-78340000D02*
X101290000Y-78330000D01*
D43*
X92340000Y-84660000D02*
X92340000Y-85610000D01*
X95180000Y-84620000D02*
X95180000Y-85600000D01*
X95180000Y-85600000D02*
X95190000Y-85610000D01*
X101410000Y-86510000D02*
X100570000Y-86510000D01*
X100570000Y-86510000D02*
X100560000Y-86500000D01*
X99330000Y-86550000D02*
X99330000Y-87530000D01*
X96440000Y-84330000D02*
X97830000Y-84330000D01*
X97830000Y-84330000D02*
X97870000Y-84290000D01*
D41*
X106870000Y-83413100D02*
X106870000Y-84300000D01*
X106870000Y-84300000D02*
X106860000Y-84310000D01*
X106372160Y-83413100D02*
X106372160Y-84307840D01*
X106372160Y-84307840D02*
X106360000Y-84320000D01*
X104900000Y-84239999D02*
X105740001Y-84239999D01*
X105740001Y-84239999D02*
X105750000Y-84230000D01*
X106372160Y-82066900D02*
X105713100Y-82066900D01*
X105713100Y-82066900D02*
X105700000Y-82080000D01*
X104915339Y-104286832D02*
X103739972Y-105462199D01*
X103739972Y-105462199D02*
X103410786Y-105462199D01*
X103410786Y-105462199D02*
X98950434Y-109922551D01*
X98950434Y-109922551D02*
X98950434Y-110251737D01*
X98950434Y-110251737D02*
X97626729Y-111575442D01*
X97626729Y-111575442D02*
X96967812Y-112234359D01*
X96967812Y-112234359D02*
X95922462Y-113279709D01*
X95922462Y-113279709D02*
X95922462Y-113462462D01*
D42*
X106948352Y-102447372D02*
X106958352Y-102447372D01*
X106958352Y-102447372D02*
X107928352Y-101477372D01*
X106028352Y-103177372D02*
X106218352Y-103177372D01*
X106218352Y-103177372D02*
X106948352Y-102447372D01*
X104915339Y-104286832D02*
X104918892Y-104286832D01*
X104918892Y-104286832D02*
X106028352Y-103177372D01*
D41*
X92384676Y-104979948D02*
X92084677Y-104679949D01*
X94545141Y-105753248D02*
X93157976Y-105753248D01*
X95200045Y-106408152D02*
X94545141Y-105753248D01*
X93157976Y-105753248D02*
X92384676Y-104979948D01*
D43*
X91715000Y-83160000D02*
X91146481Y-83728519D01*
X92340000Y-83160000D02*
X91715000Y-83160000D01*
D41*
X91146481Y-83728519D02*
X91146481Y-83734625D01*
X95200045Y-106408152D02*
X94591599Y-105799706D01*
D43*
X100490000Y-85180000D02*
X99450000Y-85180000D01*
D41*
X98800000Y-81250000D02*
X97450000Y-81250000D01*
D43*
X97450000Y-81250000D02*
X96780000Y-81920000D01*
X95840000Y-79105000D02*
X95840000Y-80180000D01*
X95840000Y-80180000D02*
X96910000Y-81250000D01*
X96910000Y-81250000D02*
X97150000Y-81250000D01*
X97150000Y-81250000D02*
X98800000Y-81250000D01*
X100490000Y-83280000D02*
X99460000Y-83280000D01*
X99460000Y-83280000D02*
X99430000Y-83250000D01*
X102309200Y-83289998D02*
X102309200Y-84210800D01*
X102309200Y-84210800D02*
X102280000Y-84240000D01*
X104490000Y-87940000D02*
X103180000Y-87940000D01*
X103180000Y-87940000D02*
X102880000Y-87640000D01*
X104480000Y-86700000D02*
X104110000Y-86700000D01*
X104110000Y-86700000D02*
X103720000Y-86310000D01*
D41*
X96967812Y-104640385D02*
X95097427Y-102770000D01*
X95097427Y-102770000D02*
X94470000Y-102770000D01*
X91341572Y-102848428D02*
X94391572Y-102848428D01*
X94391572Y-102848428D02*
X94470000Y-102770000D01*
X96308895Y-103981468D02*
X96967812Y-104640385D01*
X95250000Y-102010000D02*
X96712919Y-103472919D01*
X96712919Y-103472919D02*
X96712919Y-103557768D01*
X97321365Y-104166214D02*
X97321365Y-104286832D01*
X96712919Y-103557768D02*
X97321365Y-104166214D01*
X94170000Y-100020000D02*
X94170000Y-100930000D01*
X94170000Y-100930000D02*
X95250000Y-102010000D01*
X97586298Y-97861815D02*
X98012795Y-97861815D01*
X98012795Y-97861815D02*
X99458352Y-99307372D01*
X99458352Y-99307372D02*
X99379809Y-99385915D01*
X99379809Y-99385915D02*
X99379809Y-100663050D01*
X99379809Y-100663050D02*
X98783769Y-101259090D01*
X98783769Y-101259090D02*
X98783769Y-101506594D01*
X98783769Y-101506594D02*
X99442686Y-102165511D01*
X97958352Y-100787372D02*
X97958352Y-101388285D01*
X97958352Y-101388285D02*
X99089132Y-102519065D01*
X98715890Y-100049834D02*
X98383759Y-100381965D01*
X98383759Y-100381965D02*
X98383759Y-101813692D01*
X98383759Y-101813692D02*
X98430215Y-101860148D01*
X98430215Y-101860148D02*
X99089132Y-102519065D01*
X96242795Y-99205318D02*
X96242795Y-100556739D01*
X96242795Y-100556739D02*
X97215890Y-101529834D01*
X97215890Y-101529834D02*
X97392796Y-101529834D01*
X97392796Y-101529834D02*
X98735580Y-102872618D01*
X109157980Y-97207684D02*
X110441380Y-97207684D01*
D42*
X101863422Y-122638298D02*
X101233422Y-122008298D01*
X102263422Y-122638298D02*
X101863422Y-122638298D01*
D41*
X96440000Y-83280000D02*
X97830000Y-83280000D01*
X102870000Y-89820000D02*
X102870000Y-90590000D01*
X106683106Y-106054600D02*
X107342023Y-105395683D01*
X107342023Y-105395683D02*
X107791538Y-105395683D01*
X107791538Y-105395683D02*
X108205001Y-104982220D01*
X106683106Y-106054600D02*
X106708357Y-106054600D01*
X101770000Y-89860000D02*
X101770000Y-90570000D01*
X101770000Y-90570000D02*
X101780000Y-90580000D01*
X107400000Y-104630000D02*
X107430000Y-104630000D01*
X107430000Y-104630000D02*
X107630000Y-104430000D01*
X105975999Y-105347492D02*
X106693491Y-104630000D01*
X106693491Y-104630000D02*
X107400000Y-104630000D01*
X107036659Y-106408152D02*
X104770000Y-108660000D01*
X104770000Y-108660000D02*
X102890000Y-108610000D01*
X105670038Y-106359962D02*
X104430564Y-107599436D01*
X104430564Y-107599436D02*
X102226262Y-107599436D01*
X106329551Y-105701045D02*
X105670634Y-106359962D01*
X105670634Y-106359962D02*
X105670038Y-106359962D01*
X95440000Y-89910000D02*
X95440000Y-90680000D01*
X95440000Y-90680000D02*
X95460000Y-90700000D01*
D43*
X104900000Y-85190000D02*
X106560000Y-85190000D01*
X106560000Y-85190000D02*
X106570000Y-85200000D01*
X106570000Y-86700000D02*
X105380000Y-86700000D01*
D41*
X89718352Y-113472659D02*
X89780486Y-113534793D01*
X89718352Y-112877372D02*
X89718352Y-113472659D01*
X89728352Y-115691372D02*
X89728352Y-113586927D01*
X89728352Y-113586927D02*
X89780486Y-113534793D01*
X95200045Y-110466592D02*
X93355623Y-112311014D01*
X93355623Y-112311014D02*
X93354730Y-112311014D01*
X89728352Y-119247372D02*
X89728352Y-121717372D01*
X93774952Y-112813019D02*
X93474953Y-113113018D01*
X94818352Y-111769619D02*
X93774952Y-112813019D01*
X95553598Y-110820144D02*
X94818352Y-111555390D01*
X94818352Y-111555390D02*
X94818352Y-111769619D01*
X90998352Y-112877372D02*
X90998352Y-113647372D01*
X90998352Y-113647372D02*
X91018352Y-113667372D01*
X90998352Y-115691372D02*
X90998352Y-113687372D01*
X90998352Y-113687372D02*
X91018352Y-113667372D01*
X94492938Y-109759485D02*
X94190465Y-109759485D01*
X94190465Y-109759485D02*
X93618352Y-109187372D01*
X92268352Y-115691372D02*
X92268352Y-111984071D01*
X92268352Y-111984071D02*
X93834021Y-110418402D01*
X93834021Y-110418402D02*
X94492938Y-109759485D01*
X93538352Y-115691372D02*
X93538352Y-114421372D01*
X93538352Y-114421372D02*
X92759827Y-113642847D01*
X92759827Y-113642847D02*
X92759827Y-112079689D01*
X92759827Y-112079689D02*
X94067561Y-110771955D01*
X94067561Y-110771955D02*
X94187574Y-110771955D01*
X94187574Y-110771955D02*
X94846491Y-110113038D01*
D42*
X98028472Y-103579725D02*
X99163605Y-104714858D01*
X99163605Y-104714858D02*
X99163605Y-107237767D01*
X99163605Y-107237767D02*
X98084724Y-108316648D01*
X98084724Y-108316648D02*
X97352450Y-108316648D01*
X97352450Y-108316648D02*
X96928186Y-108316648D01*
D41*
X94808352Y-114421372D02*
X94118241Y-113731261D01*
X94118241Y-113731261D02*
X94118241Y-113529557D01*
X94808352Y-115691372D02*
X94808352Y-114421372D01*
X91747287Y-110777385D02*
X92047286Y-111077384D01*
X91440000Y-110470098D02*
X91747287Y-110777385D01*
X91440000Y-108320000D02*
X91440000Y-110470098D01*
X96274593Y-106946986D02*
X96274593Y-107371250D01*
X96274593Y-106775595D02*
X96274593Y-106946986D01*
X95553598Y-106054600D02*
X96274593Y-106775595D01*
X93890000Y-79105000D02*
X93890000Y-80380000D01*
X93890000Y-80380000D02*
X93900000Y-80390000D01*
X94492938Y-107115259D02*
X93947129Y-106569450D01*
X93947129Y-106569450D02*
X92540821Y-106569450D01*
X92540821Y-106569450D02*
X89001806Y-103030435D01*
X89001806Y-103030435D02*
X89001806Y-98271806D01*
X89001806Y-98271806D02*
X88159999Y-97429999D01*
X88159999Y-97429999D02*
X87300000Y-96570000D01*
X98675432Y-109501627D02*
X98375433Y-109801626D01*
X100981587Y-107195472D02*
X98675432Y-109501627D01*
X98375433Y-109801626D02*
X96800819Y-109801626D01*
X100981587Y-104581587D02*
X100981587Y-107195472D01*
X96800819Y-109801626D02*
X94492938Y-107493745D01*
X94492938Y-107412825D02*
X94492938Y-107115259D01*
X94492938Y-107493745D02*
X94492938Y-107412825D01*
X100149006Y-125599478D02*
X99724742Y-125599478D01*
X100454732Y-125599478D02*
X100149006Y-125599478D01*
X100879751Y-126024497D02*
X100454732Y-125599478D01*
X101329623Y-126024497D02*
X100879751Y-126024497D01*
D42*
X99913422Y-120158298D02*
X99913422Y-120563298D01*
X99586720Y-120890000D02*
X99280000Y-120890000D01*
X99913422Y-120563298D02*
X99586720Y-120890000D01*
D41*
X105871380Y-97197684D02*
X104382316Y-97197684D01*
X104382316Y-97197684D02*
X100470000Y-101110000D01*
X107151380Y-97207684D02*
X105881380Y-97207684D01*
X105881380Y-97207684D02*
X105871380Y-97197684D01*
X88159999Y-94889999D02*
X87300000Y-94030000D01*
X89401817Y-102832725D02*
X89401817Y-96131817D01*
X92722351Y-106153259D02*
X89401817Y-102832725D01*
X89401817Y-96131817D02*
X88159999Y-94889999D01*
X94238044Y-106153259D02*
X92722351Y-106153259D01*
X94846491Y-106761706D02*
X94238044Y-106153259D01*
X95505408Y-107940515D02*
X96687311Y-109122418D01*
X94846491Y-106761706D02*
X95505408Y-107420623D01*
X96687311Y-109122418D02*
X98151934Y-109122418D01*
X98151934Y-109122418D02*
X98451933Y-108822419D01*
X95505408Y-107420623D02*
X95505408Y-107940515D01*
X100406586Y-104305586D02*
X100406586Y-106867766D01*
X100406586Y-106867766D02*
X98451933Y-108822419D01*
X100483422Y-126870698D02*
X100483422Y-126442898D01*
X100483422Y-126442898D02*
X100309333Y-126268809D01*
X100309333Y-126268809D02*
X100260950Y-126268809D01*
X100855166Y-103894834D02*
X100817338Y-103894834D01*
X100817338Y-103894834D02*
X100406586Y-104305586D01*
X100406586Y-104305586D02*
X100404414Y-104305586D01*
X105811380Y-98457684D02*
X104272315Y-98457684D01*
X104272315Y-98457684D02*
X100855166Y-101874833D01*
X100855166Y-101874833D02*
X100855166Y-103894834D01*
X100443422Y-120158298D02*
X100443422Y-120993298D01*
X100443422Y-120993298D02*
X100488422Y-121038298D01*
X107151380Y-98457684D02*
X105811380Y-98457684D01*
D43*
X102309200Y-85190000D02*
X102309200Y-86509200D01*
X102309200Y-86509200D02*
X102310000Y-86510000D01*
D41*
X102440465Y-101811958D02*
X102440465Y-101189535D01*
X102440465Y-101189535D02*
X104400000Y-99230000D01*
D42*
X98735580Y-114002126D02*
X98076663Y-114661043D01*
X98076663Y-114876306D02*
X96134782Y-116818187D01*
X96134782Y-116818187D02*
X95834783Y-117118186D01*
X98076663Y-114661043D02*
X98076663Y-114876306D01*
X99089132Y-114355679D02*
X98430215Y-115014596D01*
X98430215Y-115014596D02*
X98430215Y-115303706D01*
X88624493Y-122384493D02*
X88624493Y-120754493D01*
X98430215Y-115303706D02*
X95407023Y-118326898D01*
X95407023Y-118326898D02*
X95407023Y-122137540D01*
X89426756Y-123186756D02*
X88624493Y-122384493D01*
X95407023Y-122137540D02*
X94357807Y-123186756D01*
X88624493Y-120754493D02*
X88159999Y-120289999D01*
X94357807Y-123186756D02*
X89426756Y-123186756D01*
X88159999Y-120289999D02*
X87300000Y-119430000D01*
X99442686Y-114709233D02*
X98783769Y-115368150D01*
X98783769Y-115368150D02*
X98783769Y-115445142D01*
X98783769Y-115445142D02*
X95757033Y-118471878D01*
X95757033Y-118471878D02*
X95757033Y-122357317D01*
X95757033Y-122357317D02*
X94577583Y-123536767D01*
X94577583Y-123536767D02*
X88866767Y-123536767D01*
X88866767Y-123536767D02*
X88159999Y-122829999D01*
X88159999Y-122829999D02*
X87300000Y-121970000D01*
X99796239Y-115062786D02*
X96107043Y-118751982D01*
X94141576Y-124510000D02*
X88516223Y-124510000D01*
X96107043Y-118751982D02*
X96107043Y-122544533D01*
X96107043Y-122544533D02*
X94141576Y-124510000D01*
X88516223Y-124510000D02*
X87300000Y-124510000D01*
X99796239Y-115062786D02*
X99796239Y-115079933D01*
D41*
X102473422Y-125528298D02*
X101333423Y-125528298D01*
X102473422Y-125528298D02*
X102473422Y-126583297D01*
X102473422Y-126583297D02*
X102483422Y-126593297D01*
X101333423Y-125528298D02*
X101329623Y-125524498D01*
X99620000Y-117470000D02*
X99620000Y-117888998D01*
X99620000Y-117888998D02*
X99358421Y-118150577D01*
X99358421Y-118150577D02*
X99358421Y-118698297D01*
X99358421Y-118698297D02*
X99358421Y-119068298D01*
D42*
X99383422Y-120158298D02*
X99383422Y-119068298D01*
D43*
X104900000Y-83289998D02*
X105402489Y-82787509D01*
X105402489Y-82787509D02*
X107204843Y-82787509D01*
X107204843Y-82787509D02*
X107369861Y-82622491D01*
X107369861Y-82622491D02*
X107369861Y-82066900D01*
D41*
X88160000Y-78820000D02*
X88160000Y-78070000D01*
X88160000Y-78070000D02*
X88150000Y-78060000D01*
X106700000Y-115080000D02*
X106700000Y-124692722D01*
X106700000Y-124692722D02*
X102112722Y-129280000D01*
X102112722Y-129280000D02*
X87850198Y-129280000D01*
X87850198Y-129280000D02*
X85706998Y-127136800D01*
X85706998Y-127136800D02*
X85706998Y-83368001D01*
X85706998Y-83368001D02*
X88160000Y-80914999D01*
X88160000Y-80914999D02*
X88160000Y-79720000D01*
X104915339Y-112587912D02*
X104897912Y-112587912D01*
X104897912Y-112587912D02*
X103840000Y-111530000D01*
X112850000Y-79650000D02*
X112850000Y-78893080D01*
X106870000Y-79384998D02*
X106870000Y-81541310D01*
X112850000Y-78893080D02*
X112081919Y-78124999D01*
X112081919Y-78124999D02*
X108129999Y-78124999D01*
X108129999Y-78124999D02*
X106870000Y-79384998D01*
X106870000Y-81541310D02*
X106870000Y-82066900D01*
X107151380Y-95957684D02*
X106482280Y-95957684D01*
X106482280Y-95957684D02*
X106347279Y-95822683D01*
X106347279Y-95822683D02*
X100346084Y-95822683D01*
X100346084Y-95822683D02*
X100275548Y-95893219D01*
X100275548Y-95893219D02*
X99975549Y-96193218D01*
X103147572Y-102519065D02*
X103147572Y-102532428D01*
X103147572Y-102532428D02*
X102030000Y-103650000D01*
X107151380Y-95957684D02*
X107011680Y-95957684D01*
X107151380Y-94707684D02*
X100312316Y-94707684D01*
X100312316Y-94707684D02*
X99460000Y-95560000D01*
X102794018Y-102165511D02*
X102135101Y-102824428D01*
X102135101Y-102824428D02*
X101795396Y-102824428D01*
X101795396Y-102824428D02*
X101460556Y-103159268D01*
X101460556Y-103159268D02*
X101460556Y-103161906D01*
D42*
X96561381Y-113601377D02*
X96061377Y-114101381D01*
X96061377Y-114101381D02*
X95803684Y-114101381D01*
X95803684Y-114101381D02*
X95517472Y-114387593D01*
X97321365Y-112587912D02*
X96561381Y-113347896D01*
X96561381Y-113347896D02*
X96561381Y-113601377D01*
X97674919Y-112941466D02*
X97016002Y-113600383D01*
X97016002Y-113600383D02*
X97016002Y-113823998D01*
X97016002Y-113823998D02*
X96220000Y-114620000D01*
D41*
X97012125Y-120948298D02*
X96482054Y-120418227D01*
X100382730Y-115062786D02*
X102142899Y-115062786D01*
X98593422Y-120948298D02*
X97012125Y-120948298D01*
X102142899Y-115062786D02*
X102440465Y-115062786D01*
X96482054Y-120418227D02*
X96482054Y-118963462D01*
X96482054Y-118963462D02*
X100382730Y-115062786D01*
D42*
X101382041Y-114044017D02*
X101082042Y-114344016D01*
X102082849Y-113343209D02*
X101382041Y-114044017D01*
X102842207Y-113343209D02*
X102082849Y-113343209D01*
X103501124Y-114002126D02*
X102842207Y-113343209D01*
X98593422Y-121478298D02*
X99739383Y-121478298D01*
X99739383Y-121478298D02*
X99741942Y-121480857D01*
D41*
X105338342Y-116065910D02*
X105038343Y-116365909D01*
X105569148Y-113600383D02*
X106115001Y-114146236D01*
X104561785Y-112941466D02*
X105220702Y-113600383D01*
X106115001Y-115289251D02*
X105338342Y-116065910D01*
X105220702Y-113600383D02*
X105569148Y-113600383D01*
X106115001Y-114146236D02*
X106115001Y-115289251D01*
X100983424Y-124178298D02*
X101553027Y-124178298D01*
X101553027Y-124178298D02*
X101703705Y-124027620D01*
X105540000Y-114610000D02*
X105523213Y-114610000D01*
X105523213Y-114610000D02*
X104208232Y-113295019D01*
X99983423Y-124178298D02*
X99983423Y-124881201D01*
X99983423Y-124881201D02*
X99972902Y-124891722D01*
D42*
X101466644Y-113031738D02*
X101166645Y-113331737D01*
X101508728Y-112989654D02*
X101466644Y-113031738D01*
X103195762Y-112989654D02*
X101508728Y-112989654D01*
X103854679Y-113648571D02*
X103195762Y-112989654D01*
X98593422Y-122008298D02*
X99244606Y-122008298D01*
X99244606Y-122008298D02*
X99366338Y-122130030D01*
D41*
X105268892Y-112234359D02*
X105268892Y-112354975D01*
X105268892Y-112354975D02*
X105881353Y-112967436D01*
X105881353Y-112967436D02*
X105881353Y-113346889D01*
X111164989Y-122974989D02*
X111840001Y-123650001D01*
X105881353Y-113346889D02*
X111164989Y-118630525D01*
X111164989Y-118630525D02*
X111164989Y-122974989D01*
X111840001Y-123650001D02*
X112700000Y-124510000D01*
X105622446Y-111880805D02*
X106281363Y-112539722D01*
X106281363Y-112539722D02*
X106281363Y-113018731D01*
X106281363Y-113018731D02*
X111564999Y-118302367D01*
X111564999Y-118302367D02*
X111564999Y-120834999D01*
X111564999Y-120834999D02*
X111840001Y-121110001D01*
X111840001Y-121110001D02*
X112700000Y-121970000D01*
X106683106Y-110820144D02*
X105822962Y-109960000D01*
X105822962Y-109960000D02*
X105490000Y-109960000D01*
X107036659Y-110466592D02*
X107036659Y-110426659D01*
X107036659Y-110426659D02*
X105990000Y-109380000D01*
X107390213Y-110113038D02*
X107390213Y-110117438D01*
X111622775Y-114350000D02*
X112700000Y-114350000D01*
X107390213Y-110117438D02*
X111622775Y-114350000D01*
X112683307Y-111793307D02*
X112700000Y-111810000D01*
X107743766Y-109759485D02*
X109777588Y-111793307D01*
X109777588Y-111793307D02*
X112683307Y-111793307D01*
X107743766Y-107115259D02*
X109883042Y-109254535D01*
X109883042Y-109254535D02*
X112684535Y-109254535D01*
X112684535Y-109254535D02*
X112700000Y-109270000D01*
X107390213Y-106761706D02*
X107965809Y-106186110D01*
X108086425Y-106186110D02*
X108119276Y-106153259D01*
X107965809Y-106186110D02*
X108086425Y-106186110D01*
X108347104Y-106153259D02*
X108379955Y-106186110D01*
X108119276Y-106153259D02*
X108347104Y-106153259D01*
X108379955Y-106186110D02*
X112156110Y-106186110D01*
X112156110Y-106186110D02*
X112700000Y-106730000D01*
X104149024Y-106467361D02*
X104149024Y-106730557D01*
X105622446Y-104993939D02*
X104149024Y-106467361D01*
X103872077Y-106037200D02*
X103686787Y-106037200D01*
X105268892Y-104640385D02*
X103872077Y-106037200D01*
X99796239Y-101811958D02*
X100455156Y-102470875D01*
X100455156Y-102470875D02*
X100455156Y-103681090D01*
X100455156Y-103681090D02*
X99740000Y-104396246D01*
X99740000Y-104396246D02*
X99740000Y-106210000D01*
X90284174Y-107629984D02*
X88601795Y-105947605D01*
X94821255Y-108522464D02*
X92700844Y-108522464D01*
X88159999Y-99969999D02*
X87300000Y-99110000D01*
X95907153Y-111173699D02*
X96566070Y-110514782D01*
X96566070Y-110514782D02*
X96566070Y-110267279D01*
X96566070Y-110267279D02*
X94821255Y-108522464D01*
X92700844Y-108522464D02*
X91808364Y-107629984D01*
X91808364Y-107629984D02*
X90284174Y-107629984D01*
X88601795Y-105947605D02*
X88601795Y-100411795D01*
X88601795Y-100411795D02*
X88159999Y-99969999D01*
D42*
X88767407Y-114293144D02*
X88767407Y-114717408D01*
X87300000Y-111810000D02*
X88767407Y-113277407D01*
X88767407Y-113277407D02*
X88767407Y-114293144D01*
X95656819Y-115450001D02*
X95694422Y-115487604D01*
X95497803Y-115450001D02*
X95656819Y-115450001D01*
X97369555Y-114420064D02*
X96339618Y-115450001D01*
X96304577Y-115450001D02*
X95497803Y-115450001D01*
X96339618Y-115450001D02*
X95497803Y-115450001D01*
X97369555Y-113953936D02*
X97369555Y-114420064D01*
X98028472Y-113295019D02*
X97369555Y-113953936D01*
X98382025Y-113648571D02*
X97723108Y-114307488D01*
X97723108Y-114687300D02*
X96537875Y-115872533D01*
X97723108Y-114307488D02*
X97723108Y-114687300D01*
X96537875Y-115872533D02*
X96300020Y-115872533D01*
X96300020Y-115872533D02*
X96000021Y-116172532D01*
D44*
X97475647Y-107269539D02*
X97475647Y-107278405D01*
X95907153Y-105701045D02*
X97475647Y-107269539D01*
X94540000Y-79105000D02*
X94540000Y-80117500D01*
X94540000Y-80117500D02*
X94700000Y-80277500D01*
X94700000Y-80277500D02*
X94700000Y-80942653D01*
X94700000Y-80942653D02*
X94122426Y-81520227D01*
X94122426Y-81520227D02*
X93804229Y-81520227D01*
X97734586Y-106535556D02*
X98158850Y-106535556D01*
X97448769Y-106535556D02*
X97734586Y-106535556D01*
X96260705Y-105347492D02*
X97448769Y-106535556D01*
X94355771Y-81753572D02*
X94355771Y-82071769D01*
X95030000Y-80277500D02*
X95030000Y-81079343D01*
X95190000Y-79105000D02*
X95190000Y-80117500D01*
X95190000Y-80117500D02*
X95030000Y-80277500D01*
X95030000Y-81079343D02*
X94355771Y-81753572D01*
D45*
G36*
X114598000Y-78215639D02*
X114598000Y-92803865D01*
X111536552Y-92812637D01*
X111516999Y-87259553D01*
X111506819Y-87210178D01*
X111478232Y-87168654D01*
X111435742Y-87141524D01*
X111391227Y-87133006D01*
X110782898Y-87127128D01*
X110948811Y-86727566D01*
X110949189Y-86294335D01*
X110783748Y-85893937D01*
X110477674Y-85587329D01*
X110077566Y-85421189D01*
X109644335Y-85420811D01*
X109243937Y-85586252D01*
X108937329Y-85892326D01*
X108771189Y-86292434D01*
X108770811Y-86725665D01*
X108929292Y-87109219D01*
X107375445Y-87094206D01*
X107353406Y-85322277D01*
X107353406Y-84950000D01*
X107348448Y-84923650D01*
X107345803Y-84710984D01*
X107391235Y-84665631D01*
X107486891Y-84435265D01*
X107487109Y-84185829D01*
X107391855Y-83955297D01*
X107335704Y-83899048D01*
X107334255Y-83782567D01*
X107353266Y-83688690D01*
X107353266Y-83325559D01*
X108261198Y-83316994D01*
X108310512Y-83306523D01*
X108351866Y-83277691D01*
X108378745Y-83235041D01*
X108387000Y-83190248D01*
X108396011Y-78576999D01*
X110016594Y-78576999D01*
X110016594Y-80900000D01*
X110039395Y-81021179D01*
X110111012Y-81132474D01*
X110220286Y-81207138D01*
X110235727Y-81210265D01*
X110213109Y-81264735D01*
X110212891Y-81514171D01*
X110308145Y-81744703D01*
X110484369Y-81921235D01*
X110714735Y-82016891D01*
X110964171Y-82017109D01*
X111194703Y-81921855D01*
X111371235Y-81745631D01*
X111466891Y-81515265D01*
X111467109Y-81265829D01*
X111446231Y-81215299D01*
X111471179Y-81210605D01*
X111582474Y-81138988D01*
X111657138Y-81029714D01*
X111683406Y-80900000D01*
X111683406Y-78576999D01*
X111894695Y-78576999D01*
X112016594Y-78698898D01*
X112016594Y-80900000D01*
X112039395Y-81021179D01*
X112111012Y-81132474D01*
X112220286Y-81207138D01*
X112350000Y-81233406D01*
X113350000Y-81233406D01*
X113471179Y-81210605D01*
X113582474Y-81138988D01*
X113657138Y-81029714D01*
X113683406Y-80900000D01*
X113683406Y-78400000D01*
X113660605Y-78278821D01*
X113618091Y-78212753D01*
X114598000Y-78215639D01*
X114598000Y-78215639D01*
G37*
X114598000Y-78215639D02*
X114598000Y-92803865D01*
X111536552Y-92812637D01*
X111516999Y-87259553D01*
X111506819Y-87210178D01*
X111478232Y-87168654D01*
X111435742Y-87141524D01*
X111391227Y-87133006D01*
X110782898Y-87127128D01*
X110948811Y-86727566D01*
X110949189Y-86294335D01*
X110783748Y-85893937D01*
X110477674Y-85587329D01*
X110077566Y-85421189D01*
X109644335Y-85420811D01*
X109243937Y-85586252D01*
X108937329Y-85892326D01*
X108771189Y-86292434D01*
X108770811Y-86725665D01*
X108929292Y-87109219D01*
X107375445Y-87094206D01*
X107353406Y-85322277D01*
X107353406Y-84950000D01*
X107348448Y-84923650D01*
X107345803Y-84710984D01*
X107391235Y-84665631D01*
X107486891Y-84435265D01*
X107487109Y-84185829D01*
X107391855Y-83955297D01*
X107335704Y-83899048D01*
X107334255Y-83782567D01*
X107353266Y-83688690D01*
X107353266Y-83325559D01*
X108261198Y-83316994D01*
X108310512Y-83306523D01*
X108351866Y-83277691D01*
X108378745Y-83235041D01*
X108387000Y-83190248D01*
X108396011Y-78576999D01*
X110016594Y-78576999D01*
X110016594Y-80900000D01*
X110039395Y-81021179D01*
X110111012Y-81132474D01*
X110220286Y-81207138D01*
X110235727Y-81210265D01*
X110213109Y-81264735D01*
X110212891Y-81514171D01*
X110308145Y-81744703D01*
X110484369Y-81921235D01*
X110714735Y-82016891D01*
X110964171Y-82017109D01*
X111194703Y-81921855D01*
X111371235Y-81745631D01*
X111466891Y-81515265D01*
X111467109Y-81265829D01*
X111446231Y-81215299D01*
X111471179Y-81210605D01*
X111582474Y-81138988D01*
X111657138Y-81029714D01*
X111683406Y-80900000D01*
X111683406Y-78576999D01*
X111894695Y-78576999D01*
X112016594Y-78698898D01*
X112016594Y-80900000D01*
X112039395Y-81021179D01*
X112111012Y-81132474D01*
X112220286Y-81207138D01*
X112350000Y-81233406D01*
X113350000Y-81233406D01*
X113471179Y-81210605D01*
X113582474Y-81138988D01*
X113657138Y-81029714D01*
X113683406Y-80900000D01*
X113683406Y-78400000D01*
X113660605Y-78278821D01*
X113618091Y-78212753D01*
X114598000Y-78215639D01*
G36*
X106550388Y-79065386D02*
X106452406Y-79212025D01*
X106418000Y-79384998D01*
X106418000Y-81457904D01*
X106222300Y-81457904D01*
X106101121Y-81480705D01*
X106018995Y-81533552D01*
X105825265Y-81453109D01*
X105575829Y-81452891D01*
X105345297Y-81548145D01*
X105168765Y-81724369D01*
X105073109Y-81954735D01*
X105072891Y-82204171D01*
X105168145Y-82434703D01*
X105344369Y-82611235D01*
X105574735Y-82706891D01*
X105824171Y-82707109D01*
X106043860Y-82616335D01*
X106092586Y-82649628D01*
X106222300Y-82675896D01*
X106273000Y-82675896D01*
X106273000Y-82804104D01*
X106222300Y-82804104D01*
X106101121Y-82826905D01*
X105989826Y-82898522D01*
X105915162Y-83007796D01*
X105888894Y-83137510D01*
X105888894Y-83608768D01*
X105875265Y-83603109D01*
X105625829Y-83602891D01*
X105564838Y-83628092D01*
X105560400Y-83627193D01*
X104239600Y-83627193D01*
X104227000Y-83629564D01*
X104227000Y-82600000D01*
X104216994Y-82550590D01*
X104188553Y-82508965D01*
X104146159Y-82481685D01*
X104100000Y-82473000D01*
X101527000Y-82473000D01*
X101527000Y-79968406D01*
X101700000Y-79968406D01*
X101821179Y-79945605D01*
X101932474Y-79873988D01*
X102007138Y-79764714D01*
X102033406Y-79635000D01*
X102033406Y-78885000D01*
X102010605Y-78763821D01*
X101986911Y-78727000D01*
X106888774Y-78727000D01*
X106550388Y-79065386D01*
X106550388Y-79065386D01*
G37*
X106550388Y-79065386D02*
X106452406Y-79212025D01*
X106418000Y-79384998D01*
X106418000Y-81457904D01*
X106222300Y-81457904D01*
X106101121Y-81480705D01*
X106018995Y-81533552D01*
X105825265Y-81453109D01*
X105575829Y-81452891D01*
X105345297Y-81548145D01*
X105168765Y-81724369D01*
X105073109Y-81954735D01*
X105072891Y-82204171D01*
X105168145Y-82434703D01*
X105344369Y-82611235D01*
X105574735Y-82706891D01*
X105824171Y-82707109D01*
X106043860Y-82616335D01*
X106092586Y-82649628D01*
X106222300Y-82675896D01*
X106273000Y-82675896D01*
X106273000Y-82804104D01*
X106222300Y-82804104D01*
X106101121Y-82826905D01*
X105989826Y-82898522D01*
X105915162Y-83007796D01*
X105888894Y-83137510D01*
X105888894Y-83608768D01*
X105875265Y-83603109D01*
X105625829Y-83602891D01*
X105564838Y-83628092D01*
X105560400Y-83627193D01*
X104239600Y-83627193D01*
X104227000Y-83629564D01*
X104227000Y-82600000D01*
X104216994Y-82550590D01*
X104188553Y-82508965D01*
X104146159Y-82481685D01*
X104100000Y-82473000D01*
X101527000Y-82473000D01*
X101527000Y-79968406D01*
X101700000Y-79968406D01*
X101821179Y-79945605D01*
X101932474Y-79873988D01*
X102007138Y-79764714D01*
X102033406Y-79635000D01*
X102033406Y-78885000D01*
X102010605Y-78763821D01*
X101986911Y-78727000D01*
X106888774Y-78727000D01*
X106550388Y-79065386D01*
G36*
X107873000Y-82473000D02*
X107326454Y-82473000D01*
X107326998Y-82472204D01*
X107353266Y-82342490D01*
X107353266Y-81791310D01*
X107330465Y-81670131D01*
X107322000Y-81656976D01*
X107322000Y-79572222D01*
X107873000Y-79021222D01*
X107873000Y-82473000D01*
X107873000Y-82473000D01*
G37*
X107873000Y-82473000D02*
X107326454Y-82473000D01*
X107326998Y-82472204D01*
X107353266Y-82342490D01*
X107353266Y-81791310D01*
X107330465Y-81670131D01*
X107322000Y-81656976D01*
X107322000Y-79572222D01*
X107873000Y-79021222D01*
X107873000Y-82473000D01*
G36*
X96256594Y-79780000D02*
X96279395Y-79901179D01*
X96351012Y-80012474D01*
X96460286Y-80087138D01*
X96590000Y-80113406D01*
X96775715Y-80113406D01*
X96783006Y-80149410D01*
X96811447Y-80191035D01*
X96853841Y-80218315D01*
X96900374Y-80226999D01*
X100173000Y-80217374D01*
X100173000Y-82373277D01*
X95729722Y-82383000D01*
X95680334Y-82393114D01*
X95638772Y-82421646D01*
X95611585Y-82464100D01*
X95603004Y-82508968D01*
X95594026Y-83613317D01*
X91870070Y-83622697D01*
X91810205Y-82553677D01*
X93224879Y-81280470D01*
X93177338Y-81394962D01*
X93177120Y-81644398D01*
X93272374Y-81874930D01*
X93448598Y-82051462D01*
X93678964Y-82147118D01*
X93728705Y-82147161D01*
X93728662Y-82195940D01*
X93823916Y-82426472D01*
X94000140Y-82603004D01*
X94230506Y-82698660D01*
X94479942Y-82698878D01*
X94710474Y-82603624D01*
X94887006Y-82427400D01*
X94982662Y-82197034D01*
X94982880Y-81947598D01*
X94909018Y-81768839D01*
X95314257Y-81363600D01*
X95401400Y-81233182D01*
X95432000Y-81079343D01*
X95432000Y-80444014D01*
X95474257Y-80401757D01*
X95561400Y-80271339D01*
X95592000Y-80117500D01*
X95592000Y-80038598D01*
X95622474Y-80018988D01*
X95697138Y-79909714D01*
X95723406Y-79780000D01*
X95723406Y-78430000D01*
X95704026Y-78327000D01*
X96256594Y-78327000D01*
X96256594Y-79780000D01*
X96256594Y-79780000D01*
G37*
X96256594Y-79780000D02*
X96279395Y-79901179D01*
X96351012Y-80012474D01*
X96460286Y-80087138D01*
X96590000Y-80113406D01*
X96775715Y-80113406D01*
X96783006Y-80149410D01*
X96811447Y-80191035D01*
X96853841Y-80218315D01*
X96900374Y-80226999D01*
X100173000Y-80217374D01*
X100173000Y-82373277D01*
X95729722Y-82383000D01*
X95680334Y-82393114D01*
X95638772Y-82421646D01*
X95611585Y-82464100D01*
X95603004Y-82508968D01*
X95594026Y-83613317D01*
X91870070Y-83622697D01*
X91810205Y-82553677D01*
X93224879Y-81280470D01*
X93177338Y-81394962D01*
X93177120Y-81644398D01*
X93272374Y-81874930D01*
X93448598Y-82051462D01*
X93678964Y-82147118D01*
X93728705Y-82147161D01*
X93728662Y-82195940D01*
X93823916Y-82426472D01*
X94000140Y-82603004D01*
X94230506Y-82698660D01*
X94479942Y-82698878D01*
X94710474Y-82603624D01*
X94887006Y-82427400D01*
X94982662Y-82197034D01*
X94982880Y-81947598D01*
X94909018Y-81768839D01*
X95314257Y-81363600D01*
X95401400Y-81233182D01*
X95432000Y-81079343D01*
X95432000Y-80444014D01*
X95474257Y-80401757D01*
X95561400Y-80271339D01*
X95592000Y-80117500D01*
X95592000Y-80038598D01*
X95622474Y-80018988D01*
X95697138Y-79909714D01*
X95723406Y-79780000D01*
X95723406Y-78430000D01*
X95704026Y-78327000D01*
X96256594Y-78327000D01*
X96256594Y-79780000D01*
D46*
G36*
X99023753Y-122641778D02*
X99245668Y-122733925D01*
X99485954Y-122734135D01*
X99708030Y-122642375D01*
X99848351Y-122502298D01*
X101156080Y-122502298D01*
X101179422Y-122525640D01*
X101179422Y-123704516D01*
X101110424Y-123690543D01*
X100856424Y-123690543D01*
X100743769Y-123711741D01*
X100640301Y-123778320D01*
X100570889Y-123879908D01*
X100546469Y-124000498D01*
X100546469Y-124356098D01*
X100553657Y-124394298D01*
X100412642Y-124394298D01*
X100420378Y-124356098D01*
X100420378Y-124000498D01*
X100399180Y-123887843D01*
X100332601Y-123784375D01*
X100231013Y-123714963D01*
X100110423Y-123690543D01*
X99856423Y-123690543D01*
X99743768Y-123711741D01*
X99640300Y-123778320D01*
X99570888Y-123879908D01*
X99546468Y-124000498D01*
X99546468Y-124356098D01*
X99553656Y-124394298D01*
X98787422Y-124394298D01*
X98787422Y-122502298D01*
X98884516Y-122502298D01*
X99023753Y-122641778D01*
X99023753Y-122641778D01*
G37*
X99023753Y-122641778D02*
X99245668Y-122733925D01*
X99485954Y-122734135D01*
X99708030Y-122642375D01*
X99848351Y-122502298D01*
X101156080Y-122502298D01*
X101179422Y-122525640D01*
X101179422Y-123704516D01*
X101110424Y-123690543D01*
X100856424Y-123690543D01*
X100743769Y-123711741D01*
X100640301Y-123778320D01*
X100570889Y-123879908D01*
X100546469Y-124000498D01*
X100546469Y-124356098D01*
X100553657Y-124394298D01*
X100412642Y-124394298D01*
X100420378Y-124356098D01*
X100420378Y-124000498D01*
X100399180Y-123887843D01*
X100332601Y-123784375D01*
X100231013Y-123714963D01*
X100110423Y-123690543D01*
X99856423Y-123690543D01*
X99743768Y-123711741D01*
X99640300Y-123778320D01*
X99570888Y-123879908D01*
X99546468Y-124000498D01*
X99546468Y-124356098D01*
X99553656Y-124394298D01*
X98787422Y-124394298D01*
X98787422Y-122502298D01*
X98884516Y-122502298D01*
X99023753Y-122641778D01*
D45*
G36*
X109002775Y-101781002D02*
X109007371Y-101785980D01*
X110038261Y-102844483D01*
X108427415Y-104395668D01*
X108330266Y-104355329D01*
X108257066Y-104355265D01*
X108257109Y-104305829D01*
X108161855Y-104075297D01*
X107985631Y-103898765D01*
X107755265Y-103803109D01*
X107505829Y-103802891D01*
X107275297Y-103898145D01*
X107098765Y-104074369D01*
X107055734Y-104178000D01*
X106880329Y-104178000D01*
X106572895Y-103894722D01*
X108881085Y-101641928D01*
X109002775Y-101781002D01*
X109002775Y-101781002D01*
G37*
X109002775Y-101781002D02*
X109007371Y-101785980D01*
X110038261Y-102844483D01*
X108427415Y-104395668D01*
X108330266Y-104355329D01*
X108257066Y-104355265D01*
X108257109Y-104305829D01*
X108161855Y-104075297D01*
X107985631Y-103898765D01*
X107755265Y-103803109D01*
X107505829Y-103802891D01*
X107275297Y-103898145D01*
X107098765Y-104074369D01*
X107055734Y-104178000D01*
X106880329Y-104178000D01*
X106572895Y-103894722D01*
X108881085Y-101641928D01*
X109002775Y-101781002D01*
G36*
X110703204Y-89265351D02*
X110711593Y-94416346D01*
X110701380Y-94414278D01*
X110201380Y-94414278D01*
X110080201Y-94437079D01*
X109968906Y-94508696D01*
X109894242Y-94617970D01*
X109867974Y-94747684D01*
X109867974Y-95148130D01*
X108507970Y-95141317D01*
X108488798Y-89236363D01*
X110703204Y-89265351D01*
X110703204Y-89265351D01*
G37*
X110703204Y-89265351D02*
X110711593Y-94416346D01*
X110701380Y-94414278D01*
X110201380Y-94414278D01*
X110080201Y-94437079D01*
X109968906Y-94508696D01*
X109894242Y-94617970D01*
X109867974Y-94747684D01*
X109867974Y-95148130D01*
X108507970Y-95141317D01*
X108488798Y-89236363D01*
X110703204Y-89265351D01*
M02*
