G04 #@! TF.FileFunction,Legend,Bot*
%FSLAX46Y46*%
G04 Gerber Fmt 4.6, Leading zero omitted, Abs format (unit mm)*
G04 Created by KiCad (PCBNEW 4.0.7) date 07/17/18 10:36:10*
%MOMM*%
%LPD*%
G01*
G04 APERTURE LIST*
%ADD10C,0.100000*%
%ADD11C,0.300000*%
%ADD12C,0.150000*%
G04 APERTURE END LIST*
D10*
D11*
X107214285Y-124332143D02*
X106999999Y-124403571D01*
X106642856Y-124403571D01*
X106499999Y-124332143D01*
X106428570Y-124260714D01*
X106357142Y-124117857D01*
X106357142Y-123975000D01*
X106428570Y-123832143D01*
X106499999Y-123760714D01*
X106642856Y-123689286D01*
X106928570Y-123617857D01*
X107071428Y-123546429D01*
X107142856Y-123475000D01*
X107214285Y-123332143D01*
X107214285Y-123189286D01*
X107142856Y-123046429D01*
X107071428Y-122975000D01*
X106928570Y-122903571D01*
X106571428Y-122903571D01*
X106357142Y-122975000D01*
X105214285Y-123617857D02*
X105714285Y-123617857D01*
X105714285Y-124403571D02*
X105714285Y-122903571D01*
X104999999Y-122903571D01*
X104428571Y-122903571D02*
X104428571Y-124117857D01*
X104357143Y-124260714D01*
X104285714Y-124332143D01*
X104142857Y-124403571D01*
X103857143Y-124403571D01*
X103714285Y-124332143D01*
X103642857Y-124260714D01*
X103571428Y-124117857D01*
X103571428Y-122903571D01*
X100857142Y-124403571D02*
X101357142Y-123689286D01*
X101714285Y-124403571D02*
X101714285Y-122903571D01*
X101142857Y-122903571D01*
X100999999Y-122975000D01*
X100928571Y-123046429D01*
X100857142Y-123189286D01*
X100857142Y-123403571D01*
X100928571Y-123546429D01*
X100999999Y-123617857D01*
X101142857Y-123689286D01*
X101714285Y-123689286D01*
X99999999Y-124403571D02*
X100142857Y-124332143D01*
X100214285Y-124260714D01*
X100285714Y-124117857D01*
X100285714Y-123689286D01*
X100214285Y-123546429D01*
X100142857Y-123475000D01*
X99999999Y-123403571D01*
X99785714Y-123403571D01*
X99642857Y-123475000D01*
X99571428Y-123546429D01*
X99499999Y-123689286D01*
X99499999Y-124117857D01*
X99571428Y-124260714D01*
X99642857Y-124332143D01*
X99785714Y-124403571D01*
X99999999Y-124403571D01*
X98214285Y-124332143D02*
X98357142Y-124403571D01*
X98642856Y-124403571D01*
X98785714Y-124332143D01*
X98857142Y-124260714D01*
X98928571Y-124117857D01*
X98928571Y-123689286D01*
X98857142Y-123546429D01*
X98785714Y-123475000D01*
X98642856Y-123403571D01*
X98357142Y-123403571D01*
X98214285Y-123475000D01*
X97571428Y-124403571D02*
X97571428Y-122903571D01*
X97428571Y-123832143D02*
X97000000Y-124403571D01*
X97000000Y-123403571D02*
X97571428Y-123975000D01*
X95785714Y-124332143D02*
X95928571Y-124403571D01*
X96214285Y-124403571D01*
X96357142Y-124332143D01*
X96428571Y-124189286D01*
X96428571Y-123617857D01*
X96357142Y-123475000D01*
X96214285Y-123403571D01*
X95928571Y-123403571D01*
X95785714Y-123475000D01*
X95714285Y-123617857D01*
X95714285Y-123760714D01*
X96428571Y-123903571D01*
X95285714Y-123403571D02*
X94714285Y-123403571D01*
X95071428Y-122903571D02*
X95071428Y-124189286D01*
X95000000Y-124332143D01*
X94857142Y-124403571D01*
X94714285Y-124403571D01*
X94214285Y-124403571D02*
X94214285Y-123403571D01*
X94214285Y-123689286D02*
X94142857Y-123546429D01*
X94071428Y-123475000D01*
X93928571Y-123403571D01*
X93785714Y-123403571D01*
X93428571Y-123403571D02*
X93071428Y-124403571D01*
X92714286Y-123403571D02*
X93071428Y-124403571D01*
X93214286Y-124760714D01*
X93285714Y-124832143D01*
X93428571Y-124903571D01*
X108857143Y-126525000D02*
X108142857Y-126525000D01*
X109000000Y-126953571D02*
X108500000Y-125453571D01*
X108000000Y-126953571D01*
X107642857Y-125953571D02*
X107285714Y-126953571D01*
X106928572Y-125953571D01*
X106357143Y-126953571D02*
X106357143Y-125953571D01*
X106357143Y-125453571D02*
X106428572Y-125525000D01*
X106357143Y-125596429D01*
X106285715Y-125525000D01*
X106357143Y-125453571D01*
X106357143Y-125596429D01*
X105428571Y-126953571D02*
X105571429Y-126882143D01*
X105642857Y-126810714D01*
X105714286Y-126667857D01*
X105714286Y-126239286D01*
X105642857Y-126096429D01*
X105571429Y-126025000D01*
X105428571Y-125953571D01*
X105214286Y-125953571D01*
X105071429Y-126025000D01*
X105000000Y-126096429D01*
X104928571Y-126239286D01*
X104928571Y-126667857D01*
X105000000Y-126810714D01*
X105071429Y-126882143D01*
X105214286Y-126953571D01*
X105428571Y-126953571D01*
X104285714Y-125953571D02*
X104285714Y-126953571D01*
X104285714Y-126096429D02*
X104214286Y-126025000D01*
X104071428Y-125953571D01*
X103857143Y-125953571D01*
X103714286Y-126025000D01*
X103642857Y-126167857D01*
X103642857Y-126953571D01*
X102928571Y-126953571D02*
X102928571Y-125953571D01*
X102928571Y-125453571D02*
X103000000Y-125525000D01*
X102928571Y-125596429D01*
X102857143Y-125525000D01*
X102928571Y-125453571D01*
X102928571Y-125596429D01*
X101571428Y-126882143D02*
X101714285Y-126953571D01*
X101999999Y-126953571D01*
X102142857Y-126882143D01*
X102214285Y-126810714D01*
X102285714Y-126667857D01*
X102285714Y-126239286D01*
X102214285Y-126096429D01*
X102142857Y-126025000D01*
X101999999Y-125953571D01*
X101714285Y-125953571D01*
X101571428Y-126025000D01*
X101000000Y-126882143D02*
X100857143Y-126953571D01*
X100571428Y-126953571D01*
X100428571Y-126882143D01*
X100357143Y-126739286D01*
X100357143Y-126667857D01*
X100428571Y-126525000D01*
X100571428Y-126453571D01*
X100785714Y-126453571D01*
X100928571Y-126382143D01*
X101000000Y-126239286D01*
X101000000Y-126167857D01*
X100928571Y-126025000D01*
X100785714Y-125953571D01*
X100571428Y-125953571D01*
X100428571Y-126025000D01*
X97714285Y-126953571D02*
X98214285Y-126239286D01*
X98571428Y-126953571D02*
X98571428Y-125453571D01*
X98000000Y-125453571D01*
X97857142Y-125525000D01*
X97785714Y-125596429D01*
X97714285Y-125739286D01*
X97714285Y-125953571D01*
X97785714Y-126096429D01*
X97857142Y-126167857D01*
X98000000Y-126239286D01*
X98571428Y-126239286D01*
X97071428Y-126167857D02*
X96571428Y-126167857D01*
X96357142Y-126953571D02*
X97071428Y-126953571D01*
X97071428Y-125453571D01*
X96357142Y-125453571D01*
X95928571Y-125453571D02*
X95428571Y-126953571D01*
X94928571Y-125453571D01*
X92500000Y-126953571D02*
X93357143Y-126953571D01*
X92928571Y-126953571D02*
X92928571Y-125453571D01*
X93071428Y-125667857D01*
X93214286Y-125810714D01*
X93357143Y-125882143D01*
X91214286Y-126953571D02*
X91214286Y-126167857D01*
X91285715Y-126025000D01*
X91428572Y-125953571D01*
X91714286Y-125953571D01*
X91857143Y-126025000D01*
X91214286Y-126882143D02*
X91357143Y-126953571D01*
X91714286Y-126953571D01*
X91857143Y-126882143D01*
X91928572Y-126739286D01*
X91928572Y-126596429D01*
X91857143Y-126453571D01*
X91714286Y-126382143D01*
X91357143Y-126382143D01*
X91214286Y-126310714D01*
D12*
X112066665Y-75506667D02*
X111933332Y-75506667D01*
X111866665Y-75540000D01*
X111799998Y-75606667D01*
X111766665Y-75740000D01*
X111766665Y-75973333D01*
X111799998Y-76106667D01*
X111866665Y-76173333D01*
X111933332Y-76206667D01*
X112066665Y-76206667D01*
X112133332Y-76173333D01*
X112199998Y-76106667D01*
X112233332Y-75973333D01*
X112233332Y-75740000D01*
X112199998Y-75606667D01*
X112133332Y-75540000D01*
X112066665Y-75506667D01*
X111466665Y-75740000D02*
X111466665Y-76206667D01*
X111466665Y-75806667D02*
X111433332Y-75773333D01*
X111366665Y-75740000D01*
X111266665Y-75740000D01*
X111199999Y-75773333D01*
X111166665Y-75840000D01*
X111166665Y-76206667D01*
X108566667Y-75506667D02*
X108433334Y-75506667D01*
X108366667Y-75540000D01*
X108300000Y-75606667D01*
X108266667Y-75740000D01*
X108266667Y-75973333D01*
X108300000Y-76106667D01*
X108366667Y-76173333D01*
X108433334Y-76206667D01*
X108566667Y-76206667D01*
X108633334Y-76173333D01*
X108700000Y-76106667D01*
X108733334Y-75973333D01*
X108733334Y-75740000D01*
X108700000Y-75606667D01*
X108633334Y-75540000D01*
X108566667Y-75506667D01*
X108066667Y-75740000D02*
X107800001Y-75740000D01*
X107966667Y-76206667D02*
X107966667Y-75606667D01*
X107933334Y-75540000D01*
X107866667Y-75506667D01*
X107800001Y-75506667D01*
X107666667Y-75740000D02*
X107400001Y-75740000D01*
X107566667Y-76206667D02*
X107566667Y-75606667D01*
X107533334Y-75540000D01*
X107466667Y-75506667D01*
X107400001Y-75506667D01*
X89028000Y-74886500D02*
X89091500Y-90190000D01*
X105030000Y-75013500D02*
X89028000Y-75013500D01*
X105093500Y-90253500D02*
X105030000Y-75013500D01*
X89155000Y-90190000D02*
X105093500Y-90253500D01*
X102783072Y-83276381D02*
X102783072Y-82609714D01*
X102783072Y-82704952D02*
X102735453Y-82657333D01*
X102640215Y-82609714D01*
X102497357Y-82609714D01*
X102402119Y-82657333D01*
X102354500Y-82752571D01*
X102354500Y-83276381D01*
X102354500Y-82752571D02*
X102306881Y-82657333D01*
X102211643Y-82609714D01*
X102068786Y-82609714D01*
X101973548Y-82657333D01*
X101925929Y-82752571D01*
X101925929Y-83276381D01*
X101449739Y-83276381D02*
X101449739Y-82609714D01*
X101449739Y-82276381D02*
X101497358Y-82324000D01*
X101449739Y-82371619D01*
X101402120Y-82324000D01*
X101449739Y-82276381D01*
X101449739Y-82371619D01*
X100544977Y-83228762D02*
X100640215Y-83276381D01*
X100830692Y-83276381D01*
X100925930Y-83228762D01*
X100973549Y-83181143D01*
X101021168Y-83085905D01*
X101021168Y-82800190D01*
X100973549Y-82704952D01*
X100925930Y-82657333D01*
X100830692Y-82609714D01*
X100640215Y-82609714D01*
X100544977Y-82657333D01*
X100116406Y-83276381D02*
X100116406Y-82609714D01*
X100116406Y-82800190D02*
X100068787Y-82704952D01*
X100021168Y-82657333D01*
X99925930Y-82609714D01*
X99830691Y-82609714D01*
X99354501Y-83276381D02*
X99449739Y-83228762D01*
X99497358Y-83181143D01*
X99544977Y-83085905D01*
X99544977Y-82800190D01*
X99497358Y-82704952D01*
X99449739Y-82657333D01*
X99354501Y-82609714D01*
X99211643Y-82609714D01*
X99116405Y-82657333D01*
X99068786Y-82704952D01*
X99021167Y-82800190D01*
X99021167Y-83085905D01*
X99068786Y-83181143D01*
X99116405Y-83228762D01*
X99211643Y-83276381D01*
X99354501Y-83276381D01*
X98640215Y-83228762D02*
X98497358Y-83276381D01*
X98259262Y-83276381D01*
X98164024Y-83228762D01*
X98116405Y-83181143D01*
X98068786Y-83085905D01*
X98068786Y-82990667D01*
X98116405Y-82895429D01*
X98164024Y-82847810D01*
X98259262Y-82800190D01*
X98449739Y-82752571D01*
X98544977Y-82704952D01*
X98592596Y-82657333D01*
X98640215Y-82562095D01*
X98640215Y-82466857D01*
X98592596Y-82371619D01*
X98544977Y-82324000D01*
X98449739Y-82276381D01*
X98211643Y-82276381D01*
X98068786Y-82324000D01*
X97640215Y-83276381D02*
X97640215Y-82276381D01*
X97402120Y-82276381D01*
X97259262Y-82324000D01*
X97164024Y-82419238D01*
X97116405Y-82514476D01*
X97068786Y-82704952D01*
X97068786Y-82847810D01*
X97116405Y-83038286D01*
X97164024Y-83133524D01*
X97259262Y-83228762D01*
X97402120Y-83276381D01*
X97640215Y-83276381D01*
X96878310Y-83371619D02*
X96116405Y-83371619D01*
X95306881Y-83181143D02*
X95354500Y-83228762D01*
X95497357Y-83276381D01*
X95592595Y-83276381D01*
X95735453Y-83228762D01*
X95830691Y-83133524D01*
X95878310Y-83038286D01*
X95925929Y-82847810D01*
X95925929Y-82704952D01*
X95878310Y-82514476D01*
X95830691Y-82419238D01*
X95735453Y-82324000D01*
X95592595Y-82276381D01*
X95497357Y-82276381D01*
X95354500Y-82324000D01*
X95306881Y-82371619D01*
X94449738Y-83276381D02*
X94449738Y-82752571D01*
X94497357Y-82657333D01*
X94592595Y-82609714D01*
X94783072Y-82609714D01*
X94878310Y-82657333D01*
X94449738Y-83228762D02*
X94544976Y-83276381D01*
X94783072Y-83276381D01*
X94878310Y-83228762D01*
X94925929Y-83133524D01*
X94925929Y-83038286D01*
X94878310Y-82943048D01*
X94783072Y-82895429D01*
X94544976Y-82895429D01*
X94449738Y-82847810D01*
X93973548Y-83276381D02*
X93973548Y-82609714D01*
X93973548Y-82800190D02*
X93925929Y-82704952D01*
X93878310Y-82657333D01*
X93783072Y-82609714D01*
X93687833Y-82609714D01*
X92925928Y-83276381D02*
X92925928Y-82276381D01*
X92925928Y-83228762D02*
X93021166Y-83276381D01*
X93211643Y-83276381D01*
X93306881Y-83228762D01*
X93354500Y-83181143D01*
X93402119Y-83085905D01*
X93402119Y-82800190D01*
X93354500Y-82704952D01*
X93306881Y-82657333D01*
X93211643Y-82609714D01*
X93021166Y-82609714D01*
X92925928Y-82657333D01*
M02*
